<svg id="Layer_1" data-name="Layer 1" xmlns="http://www.w3.org/2000/svg" xmlns:xlink="http://www.w3.org/1999/xlink" viewBox="0 0 1600 326"><defs><style>.cls-1,.cls-30,.cls-33,.cls-34{fill:none;}.cls-2{fill:#d8c4df;}.cls-3{font-size:70px;font-family:CenturyGothic-Bold, Century Gothic;font-weight:700;}.cls-3,.cls-8{fill:#2f2143;}.cls-18,.cls-4{opacity:0.2;}.cls-5{clip-path:url(#clip-path);}.cls-6{fill:#faa96e;}.cls-7{clip-path:url(#clip-path-2);}.cls-9{fill:#fdc435;}.cls-10{opacity:0.6;}.cls-10,.cls-14,.cls-18,.cls-22,.cls-26{isolation:isolate;}.cls-11{clip-path:url(#clip-path-3);}.cls-12{fill:#fff;}.cls-13{fill:#e5ac24;}.cls-14{opacity:0.7;}.cls-15{clip-path:url(#clip-path-4);}.cls-16{clip-path:url(#clip-path-5);}.cls-17{clip-path:url(#clip-path-6);}.cls-19{clip-path:url(#clip-path-7);}.cls-20{fill:#9a499c;}.cls-21{clip-path:url(#clip-path-8);}.cls-22{opacity:0.1;}.cls-23{clip-path:url(#clip-path-9);}.cls-24{clip-path:url(#clip-path-10);}.cls-25{clip-path:url(#clip-path-11);}.cls-26{opacity:0.3;}.cls-27{clip-path:url(#clip-path-12);}.cls-28{fill:#f47d3f;}.cls-29{clip-path:url(#clip-path-13);}.cls-30{stroke:#000;stroke-linecap:round;stroke-linejoin:round;stroke-width:0.67px;}.cls-31{fill:#f04a49;}.cls-32{fill:#fbfcfd;}.cls-33{stroke:#2f2143;}.cls-33,.cls-34{stroke-miterlimit:10;}.cls-34{stroke:#9a499c;}</style><clipPath id="clip-path"><rect class="cls-1" x="286.89" y="50.03" width="0.55" height="4.64"/></clipPath><clipPath id="clip-path-2"><rect class="cls-1" x="89.29" y="152.04" width="15.98" height="18.39"/></clipPath><clipPath id="clip-path-3"><rect class="cls-1" x="82.72" y="132.47" width="25.18" height="21.63"/></clipPath><clipPath id="clip-path-4"><rect class="cls-1" x="57.41" y="128.84" width="8.59" height="9.74"/></clipPath><clipPath id="clip-path-5"><rect class="cls-1" x="94.42" y="159.96" width="6.53" height="1.25"/></clipPath><clipPath id="clip-path-6"><rect class="cls-1" x="94.71" y="164.07" width="6.35" height="0.73"/></clipPath><clipPath id="clip-path-7"><rect class="cls-1" x="184.05" y="229.41" width="15.32" height="62.26"/></clipPath><clipPath id="clip-path-8"><rect class="cls-1" x="150.36" y="144.59" width="8.11" height="53.13"/></clipPath><clipPath id="clip-path-9"><rect class="cls-1" x="200.87" y="121.7" width="25.19" height="47.28"/></clipPath><clipPath id="clip-path-10"><rect class="cls-1" x="279.36" y="49.53" width="1.29" height="6.29"/></clipPath><clipPath id="clip-path-11"><rect class="cls-1" x="283.57" y="49.61" width="0.79" height="6.13"/></clipPath><clipPath id="clip-path-12"><rect class="cls-1" x="163.68" y="99.77" width="13.53" height="5.24"/></clipPath><clipPath id="clip-path-13"><rect class="cls-1" x="145.65" y="84.45" width="6.89" height="3.9"/></clipPath></defs><title>ADVERTISING &amp;amp; MARKETING MATERIALS 6</title><rect class="cls-2" width="1600" height="326"/><text class="cls-3" transform="translate(543.42 151.14)">ADVERTISING &amp;<tspan x="-132.26" y="75">MARKETING MATERIALS</tspan></text><g class="cls-4"><g class="cls-5"><path d="M287.44,54.51l-.22-4.34a.15.15,0,0,0-.17-.14.16.16,0,0,0-.16.16l.22,4.34a.15.15,0,0,0,.17.14c.09,0,.17-.07.16-.16"/></g></g><path class="cls-6" d="M97.29,153s5.28,1.07,5.92,1.92,9.59,6.29,9.59,6.29l-6,11.85-4.49-3.44s-3.87,1-6.55,0-1.44-16-1.44-16Z"/><g class="cls-4"><g class="cls-7"><path d="M94.06,155.24s8.84,1.78,9.83,3.84-2.27,1.95-2.27,1.95,3.59.35,3.65,1.89c.07,1.85-3.35,1.72-3.35,1.72s2.91.4,2.88,1.77-3.92,1.55-3.92,1.55,2,.67,1.44,1.61-8.78,1.37-11.22-.14-1.92-11.8-1.28-14.06a4.1,4.1,0,0,1,4.94-3.26Z"/></g></g><path class="cls-8" d="M95.38,171.82l-2.29-.7a2.76,2.76,0,0,1-1.9-3l2.5-18.32,6.24,1.92-1,17.63a2.73,2.73,0,0,1-2.85,2.59,2.63,2.63,0,0,1-.69-.12"/><path class="cls-8" d="M110.38,148c.33-1.07.65-2.13.94-3.18a18.13,18.13,0,0,0-5.7-5.29c-.71,2-1.41,4.16-2.09,6.35s-1.29,4.34-1.84,6.43a18.32,18.32,0,0,0,7.69-1.16c.34-1,.68-2.08,1-3.15"/><path class="cls-9" d="M106.24,146.69a38.71,38.71,0,0,0,1.67-7.9l-20.47-6.32-4.72,15.3,20.49,6.34a38.93,38.93,0,0,0,3-7.42"/><g class="cls-10"><g class="cls-11"><path class="cls-12" d="M106.24,146.69a38.71,38.71,0,0,0,1.67-7.9l-20.47-6.32-4.72,15.3,20.49,6.34a38.93,38.93,0,0,0,3-7.42"/></g></g><path class="cls-13" d="M92.68,132.71c-.92-.29-23.77-21.5-26.25-22.34s-7.9,8.33-11.63,20.45-4.58,22.6-1.89,23.44,33.33-4,34.27-3.68,3.21-3.4,4.73-8.34,1.94-9.2.77-9.53"/><path class="cls-9" d="M64.54,133.82c-3.73,12.12-9,21.26-11.63,20.44S51.06,143,54.8,130.82s9-21.27,11.63-20.45,1.85,11.34-1.89,23.45"/><path class="cls-8" d="M58.12,131.8c-.25.81-.49,1.65-.71,2.39A19.51,19.51,0,0,0,63,138.58c.54-1.52,1.08-3.12,1.59-4.77s1-3.29,1.38-4.83a19.14,19.14,0,0,0-7.11.47,10.76,10.76,0,0,0-.77,2.35"/><g class="cls-14"><g class="cls-15"><path class="cls-12" d="M58.12,131.8c-.25.81-.49,1.65-.71,2.39A19.51,19.51,0,0,0,63,138.58c.54-1.52,1.08-3.12,1.59-4.77s1-3.29,1.38-4.83a19.14,19.14,0,0,0-7.11.47,10.76,10.76,0,0,0-.77,2.35"/></g></g><path class="cls-6" d="M93,155.13s9.1,1.89,10.1,4-2.27,1.95-2.27,1.95,3.59.35,3.65,1.89c.07,1.85-3.35,1.72-3.35,1.72s2.91.4,2.87,1.77-3.91,1.55-3.91,1.55,2,.67,1.43,1.61-8.77,1.37-11.21-.14-1.92-11.8-1.28-14.06c.76-2.66,2.15-4,4.43-3.59Z"/><g class="cls-4"><g class="cls-16"><path d="M100.78,161.21h0l-6.22-.89a.18.18,0,0,1-.13-.2.16.16,0,0,1,.17-.15l6.22.9a.17.17,0,0,1,.13.19.17.17,0,0,1-.16.16"/></g></g><g class="cls-4"><g class="cls-17"><path d="M100.9,164.8h0l-6.05-.39a.16.16,0,0,1-.14-.18.17.17,0,0,1,.17-.16l6,.39a.16.16,0,0,1,.14.18.15.15,0,0,1-.16.16"/></g></g><path class="cls-8" d="M199,209.81l25.22-13.58c3.38,5,6.07,9.12,7.47,15,1.81,7.49-2.13,20.47-1.11,19.92-28.21,15.4-33.94,10.31-33.94,10.31l-8.13,5.27c-12.58,8.13-34.21,4.25-29.27-9.89,4.32-12.58,4.32-28.71,4.32-28.71,16.49,4.65,35.44,1.7,35.44,1.7"/><path class="cls-8" d="M185.81,219.66c-10.78-.65-19.36-3.3-22.25,4.58C150.15,260.73,141.76,326,141.76,326h36.9s24.33-64.93,24.87-79.26c.6-15.65-15.77-27-17.72-27.08"/><g class="cls-18"><g class="cls-19"><path class="cls-8" d="M189.83,291.67l9.54-29.43s-5.94-35.94-8-32.62c-15.56,25.53-1.57,62.05-1.57,62.05"/></g></g><path class="cls-8" d="M199,209.82c-9.31,5.36-12.64,14.28-10.45,22.38,9.07,33.54,43.21,93.8,43.21,93.8h46.49s-29.54-55.15-49.59-103.27c-6-14.46-28-13.89-29.66-12.91"/><path class="cls-20" d="M199.37,106.3c1.3-1,34.51-1.67,53.72-1.67v-.2a104.35,104.35,0,0,1,9.64-36.88l8.13-17.37a11.72,11.72,0,0,1,12.2-6.72,16.66,16.66,0,0,1,4.63,1.36l-3.7,1.3a20.35,20.35,0,0,1-.34,4.12L272.39,109c.36,2.16-.07,5.45-2,10.44-2.26,5.94-35.31,13-53,14.27-5.19.36-9,.24-10.44-.55-3.13-1.75-6.89-7.17-8.95-12.79s-2.35-11.46,1.37-14.1"/><path class="cls-20" d="M201,106.22c.52,0,1,0,1.55,0a15.59,15.59,0,0,1,15.09,16.08l14.6,80.81c-6.4,8.81-72.4,34.22-73.75,26.32,6.33-37.75-20.29-101.45-11.14-107.8,27.78-19.79,50-15.15,53.65-15.39"/><path class="cls-20" d="M109.87,158.05l34.77,8.48s-8-37.33,1.9-44.53,23.89,64,23.89,64l-8.94,13s-57.94-23.9-57.94-22.76,6.32-18.15,6.32-18.15"/><g class="cls-18"><g class="cls-21"><polygon class="cls-20" points="158.47 197.72 150.36 144.59 152.35 195.21 158.47 197.72"/></g></g><g class="cls-22"><g class="cls-23"><path class="cls-20" d="M200.87,121.7c2,5.63,5.8,11,8.95,12.79a8.62,8.62,0,0,0,9.84-.94c1.73,12.85,6.39,35.43,6.39,35.43s-20.32-21.67-25.18-47.28"/></g></g><path class="cls-6" d="M274.28,49.16s2.4,7.66,4.4,8.59,1.86-2.22,1.86-2.22.38,3.46,1.87,3.5c1.79,0,1.61-3.26,1.61-3.26s.43,2.81,1.76,2.75,1.44-3.8,1.44-3.8.68,1.93,1.58,1.36,1.2-8.5-.29-10.84-11.7-2.4-13.91-1.89c-.71.17-5.18,3.09-6.54,5.51l6.15.07Z"/><g class="cls-4"><g class="cls-24"><path d="M280.65,55.67h0l-.95-6a.17.17,0,0,0-.19-.13c-.09,0-.16.09-.14.17l.95,6a.16.16,0,0,0,.19.12.14.14,0,0,0,.14-.15"/></g></g><g class="cls-4"><g class="cls-25"><path d="M284.37,55.59h0l-.46-5.83a.18.18,0,0,0-.18-.14.16.16,0,0,0-.15.16l.45,5.84a.16.16,0,0,0,.18.13.16.16,0,0,0,.16-.15"/></g></g><g class="cls-26"><g class="cls-27"><path d="M176.27,101.06l-.35-1.29-12.24,2.69c4.21,3.69,11,2.78,13.53,1.05Z"/></g></g><path class="cls-8" d="M158.23,104.61c2.65,1.18,8.8,4.72,14.22,1.9a12.2,12.2,0,0,0,5.47-6.67,21.8,21.8,0,0,0,5.16-6.93,21.5,21.5,0,0,0,1.82-6.07,7.92,7.92,0,0,0,1.54-5.39c-.36-2.82-2.47-3.35-2.94-6.46-.42-2.76,1-3.65.46-5.75-.38-1.38-1.62-3.19-5.64-4.72,1.13.07,3.63.07,5.26-1.57,2.81-2.84,1.53-9-1.63-11.71-.71-.6-2-1.43-14.48-.89-7.12.31-9.22.69-10.2.89a46.59,46.59,0,0,0-10,3.14,17,17,0,0,0-5.16,5.29,12.17,12.17,0,0,0-1.85,4.43c-.75,4.52,2.18,8.27,3,9.24C141.58,87.33,147.87,100,158.23,104.61Z"/><path class="cls-8" d="M140.28,65.46c4.32-.89,8.2,3.09,14.16,9.35,6.31,6.65,8.93,12,11.94,19.12,1.18,2.8,2,6.39-.12,8.59a6.8,6.8,0,0,1-3.08,3.45,6.21,6.21,0,0,1-1.88.6l-4-1.95c-3.37-1.62-4.43-2.11-6.36-3.08-4.55-2.28-5.46-2.94-6-3.34a20.32,20.32,0,0,1-3.74-3.73,20.83,20.83,0,0,1-5.12-5.54c-3.11-5-5.25-13.27-1.17-19.23C135.69,68.55,137.39,66.05,140.28,65.46Z"/><path class="cls-6" d="M177.24,103.52a15.12,15.12,0,0,0,3.09,4.57,5.22,5.22,0,0,1,1.39,5.68c-1,2.59-3.33,6.36-8.4,11.24A7.46,7.46,0,0,1,161,121.85a6.16,6.16,0,0,1-.29-1.85,6.87,6.87,0,0,1,2.78-5.43c4.56-3.47,2.16-8.91-.42-13.3l10.83-12.7A56.85,56.85,0,0,0,176.26,101Z"/><path class="cls-8" d="M149.8,86c-1.71-5.45-3.16-11-5.8-16.14a17.17,17.17,0,0,0,.71,11.6c.76,1.81,1.44,3.45,2.09,4.94,2.49,5.84,4.4,9.52,7.86,12.37l1.09.55A49.65,49.65,0,0,1,149.8,86"/><path class="cls-6" d="M175.54,67.8c-.33-.49-.66-1-1-1.49-3.6-4.91-8.27-8.51-14.05-8.76a16.2,16.2,0,0,0-15.89,10.06,14.37,14.37,0,0,0-.62,1.7,17.2,17.2,0,0,0,.71,11.61c.76,1.8,1.44,3.44,2.09,4.94,2.49,5.83,4.4,9.52,7.86,12.37a21.21,21.21,0,0,0,3.23,2.17c.36.2.73.41,1.13.59a17.83,17.83,0,0,0,3,1.17,16.34,16.34,0,0,0,8.47.35h.09A14.92,14.92,0,0,0,182,86.1a44.21,44.21,0,0,0-6.46-18.3"/><path class="cls-6" d="M145.83,79.36c3.88,11,5.85,17.29,13.3,21.36C170.35,106.85,182.86,98,182.44,86c-.38-10.78-6.67-27-19.22-28.17-12.37-1.19-21.28,10.54-17.39,21.55"/><path class="cls-8" d="M151.44,69.34a4.92,4.92,0,0,0-3.82-2.24c-1.07,0-3.49.09-4.06,0s-1.21-.12-1.49.31a19.13,19.13,0,0,0-.83,19.4,32.83,32.83,0,0,0,13.43,11.94c-3.48-2.85-5.38-6.54-7.88-12.37a11.09,11.09,0,0,1,3-.4c.85,0,3.24,3.16,3.6,2.38,1.1-2.37-4.36-10.49-1.93-19"/><path class="cls-6" d="M144.23,90a11.14,11.14,0,0,0,7.18,4.67c3.92.7,4.16-3.31,2.84-6.75-1.2-3.09-3.25-6.7-7.07-5.84s-4.94,4.92-3,7.92"/><path class="cls-8" d="M161.86,77.21c.32,1.14,1.21,1.89,2,1.67s1.14-1.33.81-2.48-1.21-1.9-2-1.67-1.14,1.33-.81,2.48"/><path class="cls-8" d="M173.92,75.39c.32,1.15,1.21,1.89,2,1.67s1.13-1.33.81-2.48-1.22-1.89-2-1.67-1.13,1.33-.8,2.48"/><path class="cls-28" d="M171.27,75.41s5.36,4.66,7.21,6.64c-1.23,1.9-4.25,2-4.25,2Z"/><path class="cls-8" d="M156.62,74.52a.59.59,0,0,0,.53-.23,4.68,4.68,0,0,1,3.66-2,.59.59,0,0,0,.61-.54.56.56,0,0,0-.53-.58,5.9,5.9,0,0,0-4.66,2.42.54.54,0,0,0,.12.78.52.52,0,0,0,.27.1"/><g class="cls-4"><g class="cls-29"><path class="cls-30" d="M146,86.13a2.19,2.19,0,0,1,2-1.34,3.72,3.72,0,0,1,2.36.86A5.7,5.7,0,0,1,152.21,88"/></g></g><path class="cls-8" d="M179,68.74a.57.57,0,0,0,.23-.23.54.54,0,0,0-.22-.76,5.77,5.77,0,0,0-5.2-.21.57.57,0,0,0-.24.76.58.58,0,0,0,.77.23,4.5,4.5,0,0,1,4.12.2.57.57,0,0,0,.54,0"/><path class="cls-8" d="M174.35,88a34,34,0,0,0-2.06,4.36c-.28-.06-.56-.11-.84-.18-3.76-.84-5.23-2.47-5.7-4a5.09,5.09,0,0,1-.1-2.36,4.7,4.7,0,0,1,.4-1.27c1.73,1.63,5.16,2.69,7,3.17.81.17,1.27.31,1.27.31"/><path class="cls-12" d="M173.12,87.67l-.65,1.27c-3.53-.8-5.91-1.82-6.78-3.16a4.65,4.65,0,0,1,.4-1.28c1.74,1.65,5.16,2.69,7,3.17"/><path class="cls-31" d="M171.49,92.16c-3.76-.84-5.23-2.47-5.7-4a12.51,12.51,0,0,1,4,1.76,4.66,4.66,0,0,1,1.71,2.27"/><path class="cls-8" d="M146.82,59.3c-.54.44-4.13,3.43-3.53,6.64.47,2.47,3.19,3.77,4.82,4.56,4.25,2.06,7.93,1.18,14.79-.45.88-.2,2.91-.73,3.25-2a3.34,3.34,0,0,0-.07-1.67,3.5,3.5,0,0,0-.58-1.17,12.51,12.51,0,0,0,1.87.6,11.84,11.84,0,0,0,3.69.26,3.59,3.59,0,0,0,2.9-.66,3.11,3.11,0,0,0,1.4-2.38c-.14-1.39-2.14-2.24-3.82-2.82C163.4,57.37,153.34,53.87,146.82,59.3Z"/><path class="cls-8" d="M1314.28,198l-3.21-.12a3.25,3.25,0,0,0-.42-.11c-.88-.16-1.76-.27-2.63-.47a24.95,24.95,0,0,1-18.82-28.67,23.93,23.93,0,0,1,10-15.79,24.91,24.91,0,0,1,39.32,17.47c.07.69.13,1.38.2,2.07,0,1.1-.09,2.2-.14,3.3-.1.64-.21,1.28-.33,1.91a24.38,24.38,0,0,1-4,9.6.85.85,0,0,0-.13.8c.54,1.89,1,3.77,1.58,5.66l1,3.6-.52-.19c-2.7-1-5.41-2.05-8.11-3.09a.91.91,0,0,0-.94.09,24.11,24.11,0,0,1-10,3.66c-.92.13-1.86.19-2.79.28m13.78-32.43a17.77,17.77,0,0,0-.34-2.17c-1.07-3.54-2.7-4.85-6-5.06a1,1,0,0,0-1,.56c-1,1.84-2,3.65-2.91,5.5a1.46,1.46,0,0,0,.49,2.12c.63.51,1.27,1,1.89,1.53a1.73,1.73,0,0,1,.55,2.51,19.76,19.76,0,0,1-8.83,9.19,1.06,1.06,0,0,1-1.46-.21c-.56-.51-1.1-1-1.66-1.57a1.92,1.92,0,0,0-2.21-.45c-1.65.67-3.32,1.31-5,1.85a2.12,2.12,0,0,0-1.7,2.29,4.09,4.09,0,0,0,.8,2.78,8,8,0,0,0,7.24,2.72,14.28,14.28,0,0,0,6.08-2.41,37,37,0,0,0,8.45-7.12,26.64,26.64,0,0,0,4.76-8.73c.39-1.12.62-2.3.9-3.33"/><path class="cls-20" d="M1150,65.42a20.48,20.48,0,1,1-7.49-28,20.48,20.48,0,0,1,7.49,28"/><path class="cls-12" d="M1117.66,69.55l7.19-12.46L1121,54.85l3.33-5.77,3.87,2.24,2.55-4.41s5.77-9.93,17.43.63l-3,5.19-3.72-2s-3-2.28-6.36,4.54l6.15,3.55-4.41,5.2-5.21-3-7.48,13a23.66,23.66,0,0,1-6.48-4.49"/><path class="cls-13" d="M1430,298h0a21.4,21.4,0,1,1,21.39-21.39A21.39,21.39,0,0,1,1430,298"/><path class="cls-32" d="M1430,267c3.14,0,3.51,0,4.74.07a6.44,6.44,0,0,1,2.18.4,3.59,3.59,0,0,1,1.35.88,3.72,3.72,0,0,1,.88,1.35,6.44,6.44,0,0,1,.4,2.18c.06,1.23.07,1.6.07,4.74s0,3.5-.07,4.73a6.44,6.44,0,0,1-.4,2.18,3.72,3.72,0,0,1-.88,1.35,3.59,3.59,0,0,1-1.35.88,6.44,6.44,0,0,1-2.18.4c-1.23.06-1.6.07-4.74.07s-3.5,0-4.74-.07a6.42,6.42,0,0,1-2.17-.4,3.91,3.91,0,0,1-2.23-2.23,6.44,6.44,0,0,1-.4-2.18c-.06-1.23-.07-1.6-.07-4.73s0-3.51.07-4.74a6.44,6.44,0,0,1,.4-2.18,3.91,3.91,0,0,1,2.23-2.23,6.42,6.42,0,0,1,2.17-.4c1.24-.06,1.61-.07,4.74-.07m0-2.11c-3.18,0-3.58,0-4.83.07a8.48,8.48,0,0,0-2.85.54,5.77,5.77,0,0,0-2.08,1.35,5.86,5.86,0,0,0-1.35,2.08,8.7,8.7,0,0,0-.55,2.85c-.05,1.25-.07,1.65-.07,4.84s0,3.58.07,4.83a8.7,8.7,0,0,0,.55,2.85,5.86,5.86,0,0,0,1.35,2.08,5.77,5.77,0,0,0,2.08,1.35,8.48,8.48,0,0,0,2.85.54c1.25.06,1.65.07,4.83.07s3.59,0,4.84-.07a8.48,8.48,0,0,0,2.85-.54,6,6,0,0,0,3.43-3.43,8.73,8.73,0,0,0,.54-2.85c.06-1.25.07-1.65.07-4.83s0-3.59-.07-4.84a8.73,8.73,0,0,0-.54-2.85,6,6,0,0,0-3.43-3.43,8.48,8.48,0,0,0-2.85-.54c-1.25-.06-1.65-.07-4.84-.07"/><path class="cls-32" d="M1430,270.56a6,6,0,1,0,6,6,6,6,0,0,0-6-6m0,9.93a3.91,3.91,0,1,1,3.91-3.9,3.91,3.91,0,0,1-3.91,3.9"/><path class="cls-32" d="M1437.71,270.32a1.41,1.41,0,1,1-1.41-1.4,1.41,1.41,0,0,1,1.41,1.4"/><rect class="cls-13" x="1471.53" y="41.86" width="37.18" height="59.69" transform="translate(682.96 1326.33) rotate(-60)"/><polygon class="cls-20" points="1473.57 40.68 1490.12 71.7 1525.26 70.52 1473.57 40.68"/><path class="cls-8" d="M409.21,96.6a20.19,20.19,0,0,1,34.22-21.45"/><path class="cls-8" d="M418.09,57.91a7.88,7.88,0,1,1-10.86-2.49,7.88,7.88,0,0,1,10.86,2.49"/><circle class="cls-33" cx="1521.35" cy="188.22" r="15.85"/><circle class="cls-34" cx="323.96" cy="178.22" r="10"/></svg>