<svg id="Layer_1" data-name="Layer 1" xmlns="http://www.w3.org/2000/svg" xmlns:xlink="http://www.w3.org/1999/xlink" viewBox="0 0 765 277"><defs><style>.cls-1,.cls-28,.cls-31{fill:none;}.cls-2{fill:#d8c4df;}.cls-3{fill:#faa96e;}.cls-16,.cls-4{opacity:0.2;}.cls-5{clip-path:url(#clip-path);}.cls-30,.cls-6{fill:#2f2143;}.cls-7{fill:#fdc435;}.cls-8{opacity:0.6;}.cls-12,.cls-16,.cls-20,.cls-24,.cls-8{isolation:isolate;}.cls-9{clip-path:url(#clip-path-2);}.cls-10{fill:#fff;}.cls-11{fill:#e5ac24;}.cls-12{opacity:0.7;}.cls-13{clip-path:url(#clip-path-3);}.cls-14{clip-path:url(#clip-path-4);}.cls-15{clip-path:url(#clip-path-5);}.cls-17{clip-path:url(#clip-path-6);}.cls-18{fill:#9a499c;}.cls-19{clip-path:url(#clip-path-7);}.cls-20{opacity:0.1;}.cls-21{clip-path:url(#clip-path-8);}.cls-22{clip-path:url(#clip-path-9);}.cls-23{clip-path:url(#clip-path-10);}.cls-24{opacity:0.3;}.cls-25{clip-path:url(#clip-path-11);}.cls-26{fill:#f47d3f;}.cls-27{clip-path:url(#clip-path-12);}.cls-28{stroke:#000;stroke-linecap:round;stroke-linejoin:round;stroke-width:0.53px;}.cls-29{fill:#f04a49;}.cls-30{font-size:35px;font-family:CenturyGothic-Bold, Century Gothic;font-weight:700;}.cls-31{stroke:#2f2143;stroke-miterlimit:10;stroke-width:0.64px;}.cls-32{fill:#fbfcfd;}</style><clipPath id="clip-path" transform="translate(0 0)"><rect class="cls-1" x="46.02" y="139.82" width="12.6" height="14.5"/></clipPath><clipPath id="clip-path-2" transform="translate(0 0)"><rect class="cls-1" x="40.84" y="124.39" width="19.86" height="17.06"/></clipPath><clipPath id="clip-path-3" transform="translate(0 0)"><rect class="cls-1" x="20.89" y="121.53" width="6.77" height="7.68"/></clipPath><clipPath id="clip-path-4" transform="translate(0 0)"><rect class="cls-1" x="50.07" y="146.07" width="5.15" height="0.98"/></clipPath><clipPath id="clip-path-5" transform="translate(0 0)"><rect class="cls-1" x="50.3" y="149.31" width="5.01" height="0.58"/></clipPath><clipPath id="clip-path-6" transform="translate(0 0)"><rect class="cls-1" x="120.75" y="200.83" width="12.08" height="49.1"/></clipPath><clipPath id="clip-path-7" transform="translate(0 0)"><rect class="cls-1" x="94.18" y="133.95" width="6.4" height="41.89"/></clipPath><clipPath id="clip-path-8" transform="translate(0 0)"><rect class="cls-1" x="134.01" y="115.9" width="19.86" height="37.28"/></clipPath><clipPath id="clip-path-9" transform="translate(0 0)"><rect class="cls-1" x="195.91" y="58.99" width="1.02" height="4.96"/></clipPath><clipPath id="clip-path-10" transform="translate(0 0)"><rect class="cls-1" x="199.23" y="59.05" width="0.63" height="4.83"/></clipPath><clipPath id="clip-path-11" transform="translate(0 0)"><rect class="cls-1" x="104.68" y="98.61" width="10.67" height="4.14"/></clipPath><clipPath id="clip-path-12" transform="translate(0 0)"><rect class="cls-1" x="90.47" y="86.53" width="5.44" height="3.08"/></clipPath></defs><title>advertising &amp;amp; marketing tab</title><rect class="cls-2" width="765" height="277"/><path class="cls-3" d="M52.33,140.59s4.17.84,4.67,1.52,7.56,5,7.56,5l-4.74,9.34-3.54-2.71a10.61,10.61,0,0,1-5.17,0C49,152.86,50,141,50,141Z" transform="translate(0 0)"/><g class="cls-4"><g class="cls-5"><path d="M49.79,142.35s7,1.4,7.75,3-1.79,1.53-1.79,1.53,2.82.27,2.87,1.49c.06,1.46-2.64,1.35-2.64,1.35s2.3.32,2.27,1.4-3.08,1.23-3.08,1.23,1.57.53,1.13,1.27-6.93,1.07-8.85-.11-1.51-9.31-1-11.09a3.23,3.23,0,0,1,3.9-2.57Z" transform="translate(0 0)"/></g></g><path class="cls-6" d="M50.82,155.42l-1.8-.55a2.19,2.19,0,0,1-1.5-2.37l2-14.44,4.92,1.51-.8,13.9a2.13,2.13,0,0,1-2.24,2,2.53,2.53,0,0,1-.55-.09" transform="translate(0 0)"/><path class="cls-6" d="M62.65,136.6c.27-.84.52-1.67.75-2.5a14.13,14.13,0,0,0-4.5-4.17q-.84,2.4-1.65,5c-.54,1.73-1,3.43-1.45,5.07a14.27,14.27,0,0,0,6.07-.92c.26-.81.53-1.63.78-2.48" transform="translate(0 0)"/><path class="cls-7" d="M59.39,135.6a29.39,29.39,0,0,0,1.31-6.23l-16.14-5-3.72,12.07,16.16,5a30.07,30.07,0,0,0,2.39-5.85" transform="translate(0 0)"/><g class="cls-8"><g class="cls-9"><path class="cls-10" d="M59.39,135.6a29.39,29.39,0,0,0,1.31-6.23l-16.14-5-3.72,12.07,16.16,5a30.07,30.07,0,0,0,2.39-5.85" transform="translate(0 0)"/></g></g><path class="cls-11" d="M48.7,124.58C48,124.35,30,107.62,28,107s-6.23,6.57-9.18,16.13-3.6,17.82-1.49,18.48,26.29-3.12,27-2.9,2.53-2.68,3.73-6.58,1.53-7.25.61-7.51" transform="translate(0 0)"/><path class="cls-7" d="M26.51,125.45c-3,9.56-7.06,16.77-9.18,16.12s-1.45-8.87,1.49-18.48S25.88,106.32,28,107s1.46,9-1.49,18.49" transform="translate(0 0)"/><path class="cls-6" d="M21.44,123.86l-.55,1.88a15.05,15.05,0,0,0,4.43,3.46c.42-1.19.85-2.45,1.25-3.75s.76-2.6,1.09-3.82a15.58,15.58,0,0,0-5.61.37,9,9,0,0,0-.61,1.86" transform="translate(0 0)"/><g class="cls-12"><g class="cls-13"><path class="cls-10" d="M21.44,123.86l-.55,1.88a15.05,15.05,0,0,0,4.43,3.46c.42-1.19.85-2.45,1.25-3.75s.76-2.6,1.09-3.82a15.58,15.58,0,0,0-5.61.37,9,9,0,0,0-.61,1.86" transform="translate(0 0)"/></g></g><path class="cls-3" d="M48.92,142.26s7.18,1.49,8,3.12-1.79,1.53-1.79,1.53,2.83.27,2.88,1.49c.05,1.46-2.64,1.35-2.64,1.35s2.29.32,2.26,1.4-3.08,1.23-3.08,1.23,1.58.53,1.13,1.27-6.92,1.07-8.85-.11-1.51-9.31-1-11.09c.6-2.1,1.7-3.12,3.49-2.83Z" transform="translate(0 0)"/><g class="cls-4"><g class="cls-14"><path d="M55.09,147.05h0l-4.91-.71a.14.14,0,0,1-.1-.15.12.12,0,0,1,.13-.12l4.91.71a.14.14,0,0,1,0,.27" transform="translate(0 0)"/></g></g><g class="cls-4"><g class="cls-15"><path d="M55.18,149.89h0l-4.77-.31a.14.14,0,0,1-.11-.14.12.12,0,0,1,.13-.13l4.76.3a.14.14,0,0,1,.12.15.14.14,0,0,1-.13.13" transform="translate(0 0)"/></g></g><path class="cls-6" d="M132.5,185.37l19.88-10.7c2.67,3.93,4.79,7.19,5.9,11.81,1.42,5.91-1.68,16.14-.88,15.71-22.24,12.14-26.76,8.13-26.76,8.13l-6.41,4.15c-9.92,6.42-27,3.36-23.09-7.8,3.41-9.92,3.41-22.64,3.41-22.64,13,3.67,28,1.34,28,1.34" transform="translate(0 0)"/><path class="cls-6" d="M122.13,193.14c-8.49-.51-15.26-2.6-17.54,3.61C94,225.53,87.4,277,87.4,277h29.1s19.18-51.21,19.61-62.5c.47-12.35-12.44-21.27-14-21.36" transform="translate(0 0)"/><g class="cls-16"><g class="cls-17"><path class="cls-6" d="M125.31,249.92l7.52-23.2s-4.69-28.34-6.29-25.72c-12.27,20.13-1.23,48.92-1.23,48.92" transform="translate(0 0)"/></g></g><path class="cls-6" d="M132.51,185.39c-7.34,4.22-10,11.26-8.24,17.65,7.16,26.44,34.07,74,34.07,74H195s-23.3-43.49-39.11-81.44c-4.75-11.4-22.06-10.95-23.39-10.17" transform="translate(0 0)"/><path class="cls-18" d="M132.83,103.75c1-.75,27.21-1.32,42.36-1.32v-.15a82.37,82.37,0,0,1,7.6-29.09L189.2,59.5a9.25,9.25,0,0,1,9.63-5.3,13.15,13.15,0,0,1,3.64,1.07l-2.92,1a14.68,14.68,0,0,1-.27,3.24l-8.87,46.36c.28,1.71-.06,4.3-1.58,8.24C187.05,118.82,161,124.4,147,125.39c-4.09.28-7.12.19-8.24-.44-2.47-1.37-5.43-5.64-7.05-10.08s-1.85-9,1.08-11.12" transform="translate(0 0)"/><path class="cls-18" d="M134.1,103.69c.41,0,.81,0,1.22,0a12.3,12.3,0,0,1,11.9,12.68l11.51,63.73c-5,6.94-57.09,27-58.16,20.75,5-29.77-16-80-8.78-85,21.91-15.6,39.46-11.94,42.31-12.13" transform="translate(0 0)"/><path class="cls-18" d="M62.25,144.56l27.42,6.69s-6.3-29.44,1.5-35.11S110,166.59,110,166.59L103,176.82S57.27,158,57.27,158.87s5-14.31,5-14.31" transform="translate(0 0)"/><g class="cls-16"><g class="cls-19"><polygon class="cls-18" points="100.57 175.84 94.18 133.95 95.75 173.87 100.57 175.84"/></g></g><g class="cls-20"><g class="cls-21"><path class="cls-18" d="M134,115.9c1.61,4.44,4.58,8.71,7.06,10.08a6.78,6.78,0,0,0,7.75-.74c1.37,10.13,5.05,27.94,5.05,27.94s-16-17.09-19.86-37.28" transform="translate(0 0)"/></g></g><path class="cls-3" d="M191.9,58.69s1.89,6,3.47,6.78,1.46-1.75,1.46-1.75.3,2.73,1.48,2.76c1.41,0,1.27-2.58,1.27-2.58s.34,2.22,1.39,2.18,1.14-3,1.14-3,.53,1.52,1.24,1.07.94-6.7-.23-8.54-9.23-1.9-11-1.5c-.56.13-4.08,2.44-5.16,4.35l4.85,0Z" transform="translate(0 0)"/><g class="cls-4"><g class="cls-22"><path d="M196.93,63.83h0l-.75-4.73A.13.13,0,0,0,196,59a.12.12,0,0,0-.11.13l.75,4.73a.14.14,0,0,0,.15.1.13.13,0,0,0,.12-.12" transform="translate(0 0)"/></g></g><g class="cls-4"><g class="cls-23"><path d="M199.85,63.76h0l-.36-4.6a.13.13,0,0,0-.14-.11.12.12,0,0,0-.12.13l.36,4.6a.14.14,0,0,0,.14.11.12.12,0,0,0,.12-.13" transform="translate(0 0)"/></g></g><g class="cls-24"><g class="cls-25"><path d="M114.61,99.62l-.28-1-9.65,2.12c3.32,2.9,8.65,2.19,10.67.82Z" transform="translate(0 0)"/></g></g><path class="cls-6" d="M100.39,102.42c2.08.93,6.94,3.72,11.21,1.5a9.61,9.61,0,0,0,4.31-5.26A17.25,17.25,0,0,0,120,93.2a16.91,16.91,0,0,0,1.44-4.8,6.2,6.2,0,0,0,1.21-4.24c-.28-2.23-1.94-2.65-2.32-5.1-.33-2.17.82-2.87.37-4.53-.3-1.09-1.28-2.52-4.45-3.73a5.4,5.4,0,0,0,4.15-1.24c2.21-2.23,1.2-7.12-1.29-9.23-.56-.47-1.57-1.12-11.42-.69a53.55,53.55,0,0,0-8,.69,36.89,36.89,0,0,0-7.85,2.48A13.51,13.51,0,0,0,87.71,67a9.39,9.39,0,0,0-1.45,3.5C85.66,74,88,77,88.61,77.76,87.26,88.8,92.21,98.78,100.39,102.42Z" transform="translate(0 0)"/><path class="cls-6" d="M86.23,71.55c3.41-.71,6.47,2.43,11.17,7.37,5,5.24,7,9.42,9.41,15.08.93,2.21,1.56,5-.09,6.77a5.36,5.36,0,0,1-2.43,2.72,5.09,5.09,0,0,1-1.49.48l-3.17-1.54c-2.66-1.28-3.49-1.67-5-2.43a30.38,30.38,0,0,1-4.71-2.63,15.87,15.87,0,0,1-3-3,16.2,16.2,0,0,1-4-4.37c-2.45-3.91-4.14-10.46-.92-15.16C82.61,74,84,72,86.23,71.55Z" transform="translate(0 0)"/><path class="cls-3" d="M115.38,101.56a11.91,11.91,0,0,0,2.43,3.6,4.14,4.14,0,0,1,1.1,4.49c-.81,2-2.63,5-6.63,8.86a5.89,5.89,0,0,1-9.75-2.5,4.79,4.79,0,0,1-.23-1.46,5.47,5.47,0,0,1,2.19-4.28c3.6-2.73,1.71-7-.33-10.48l8.55-10a45.07,45.07,0,0,0,1.89,9.83Z" transform="translate(0 0)"/><path class="cls-6" d="M93.74,87.74C92.39,83.44,91.24,79,89.16,75a14.2,14.2,0,0,0-.53,3.17,13.49,13.49,0,0,0,1.1,6c.6,1.42,1.13,2.72,1.64,3.89,2,4.61,3.48,7.51,6.21,9.76l.85.43a39.29,39.29,0,0,1-4.69-10.5" transform="translate(0 0)"/><path class="cls-3" d="M114,73.39c-.26-.39-.52-.78-.8-1.17-2.84-3.87-6.52-6.71-11.08-6.91a12.78,12.78,0,0,0-12.53,7.93,10.75,10.75,0,0,0-.49,1.34,13.55,13.55,0,0,0,.56,9.16c.6,1.42,1.13,2.71,1.65,3.89,2,4.6,3.47,7.51,6.2,9.76a17.92,17.92,0,0,0,2.54,1.71c.29.16.58.32.9.46a14,14,0,0,0,2.35.93,12.84,12.84,0,0,0,6.68.27h.07a11.76,11.76,0,0,0,9-12.94A35,35,0,0,0,114,73.39" transform="translate(0 0)"/><path class="cls-3" d="M90.61,82.51c3.06,8.67,4.61,13.63,10.49,16.84,8.84,4.83,18.71-2.17,18.38-11.62-.3-8.51-5.26-21.27-15.16-22.22a12.93,12.93,0,0,0-13.71,17" transform="translate(0 0)"/><path class="cls-6" d="M95,74.61a3.89,3.89,0,0,0-3-1.77c-.85,0-2.75.07-3.2,0s-.95-.09-1.18.25A15.07,15.07,0,0,0,87,88.38,25.84,25.84,0,0,0,97.58,97.8c-2.75-2.25-4.24-5.16-6.22-9.76a8.94,8.94,0,0,1,2.36-.31c.67,0,2.55,2.49,2.83,1.88.87-1.87-3.43-8.27-1.52-15" transform="translate(0 0)"/><path class="cls-3" d="M89.35,90.87A8.78,8.78,0,0,0,95,94.55c3.09.55,3.28-2.61,2.23-5.32-.94-2.44-2.56-5.28-5.56-4.61a4,4,0,0,0-2.33,6.25" transform="translate(0 0)"/><path class="cls-6" d="M103.25,80.81c.25.9,1,1.49,1.56,1.32s.9-1,.64-2-1-1.49-1.57-1.31-.89,1-.63,2" transform="translate(0 0)"/><path class="cls-6" d="M112.76,79.38c.25.9.95,1.49,1.56,1.32s.89-1,.64-2-1-1.49-1.57-1.32-.89,1-.63,2" transform="translate(0 0)"/><path class="cls-26" d="M110.67,79.39s4.22,3.67,5.69,5.24c-1,1.5-3.36,1.6-3.36,1.6Z" transform="translate(0 0)"/><path class="cls-6" d="M99.12,78.69a.48.48,0,0,0,.42-.18A3.73,3.73,0,0,1,102.42,77a.47.47,0,0,0,.49-.42.45.45,0,0,0-.43-.46A4.66,4.66,0,0,0,98.81,78a.42.42,0,0,0,.09.61.45.45,0,0,0,.22.08" transform="translate(0 0)"/><g class="cls-4"><g class="cls-27"><path class="cls-28" d="M90.73,87.85a1.75,1.75,0,0,1,1.59-1.06,3,3,0,0,1,1.87.68,4.44,4.44,0,0,1,1.45,1.87" transform="translate(0 0)"/></g></g><path class="cls-6" d="M116.73,74.13a.47.47,0,0,0,.19-.18.44.44,0,0,0-.18-.6,4.58,4.58,0,0,0-4.1-.16.45.45,0,0,0-.19.6.47.47,0,0,0,.61.18,3.54,3.54,0,0,1,3.25.16.45.45,0,0,0,.42,0" transform="translate(0 0)"/><path class="cls-6" d="M113.1,89.33a25.74,25.74,0,0,0-1.63,3.44c-.22,0-.44-.09-.66-.15-3-.66-4.12-1.94-4.49-3.17a4,4,0,0,1-.08-1.86,3.6,3.6,0,0,1,.32-1c1.36,1.29,4.07,2.13,5.54,2.51.64.13,1,.24,1,.24" transform="translate(0 0)"/><path class="cls-10" d="M112.13,89.07l-.51,1c-2.79-.63-4.66-1.44-5.35-2.5a4,4,0,0,1,.32-1c1.37,1.3,4.07,2.12,5.54,2.51" transform="translate(0 0)"/><path class="cls-29" d="M110.85,92.6c-3-.66-4.13-1.94-4.5-3.17a9.8,9.8,0,0,1,3.14,1.38,3.72,3.72,0,0,1,1.36,1.79" transform="translate(0 0)"/><path class="cls-6" d="M91.39,66.69c-.43.35-3.26,2.7-2.78,5.23.37,2,2.51,3,3.79,3.6,3.36,1.62,6.26.94,11.67-.35.69-.16,2.29-.57,2.57-1.58a2.77,2.77,0,0,0-.06-1.32,2.88,2.88,0,0,0-.46-.92,9.81,9.81,0,0,0,1.47.47,9.45,9.45,0,0,0,2.92.21,2.86,2.86,0,0,0,2.28-.52,2.44,2.44,0,0,0,1.1-1.88c-.11-1.09-1.69-1.77-3-2.23C104.47,65.17,96.53,62.41,91.39,66.69Z" transform="translate(0 0)"/><text class="cls-30" transform="translate(266.95 139.14)">ADVERTISING &amp;<tspan x="-66.13" y="40">MARKETING MATERIALS</tspan></text><path class="cls-6" d="M612.07,99.37l-2.4-.1-.31-.08c-.66-.12-1.32-.2-2-.35a18.63,18.63,0,0,1-14.06-21.41,17.84,17.84,0,0,1,7.43-11.79,18.6,18.6,0,0,1,29.37,13c.06.51.1,1,.15,1.55,0,.82-.07,1.64-.1,2.47-.08.47-.16,1-.25,1.42a18.38,18.38,0,0,1-3,7.17.62.62,0,0,0-.1.6c.4,1.4.78,2.81,1.17,4.22.25.88.49,1.76.74,2.69l-.39-.14c-2-.77-4-1.53-6-2.31a.7.7,0,0,0-.71.07,18,18,0,0,1-7.45,2.73c-.7.1-1.4.15-2.09.22m10.29-24.23a12.51,12.51,0,0,0-.26-1.62c-.79-2.64-2-3.62-4.49-3.78a.73.73,0,0,0-.76.42c-.72,1.37-1.46,2.73-2.17,4.11a1.08,1.08,0,0,0,.36,1.58c.47.38,1,.75,1.41,1.14a1.3,1.3,0,0,1,.41,1.88,14.71,14.71,0,0,1-6.59,6.86.79.79,0,0,1-1.09-.15l-1.24-1.18a1.42,1.42,0,0,0-1.65-.33c-1.23.5-2.48,1-3.74,1.38a1.58,1.58,0,0,0-1.27,1.71,3.07,3.07,0,0,0,.59,2.08,6,6,0,0,0,5.41,2,10.61,10.61,0,0,0,4.54-1.8,27.52,27.52,0,0,0,6.31-5.32,19.76,19.76,0,0,0,3.56-6.52c.29-.84.46-1.72.67-2.49" transform="translate(0 0)"/><path class="cls-18" d="M260.07,61.15a14.48,14.48,0,1,1-5.3-19.78,14.49,14.49,0,0,1,5.3,19.78" transform="translate(0 0)"/><path class="cls-10" d="M237.19,64.07l5.09-8.81-2.73-1.58,2.35-4.08,2.73,1.58,1.8-3.12s4.09-7,12.33.45l-2.12,3.67L254,50.79s-2.15-1.62-4.5,3.21l4.34,2.51-3.11,3.67-3.68-2.1-5.29,9.16a16.91,16.91,0,0,1-4.59-3.17" transform="translate(0 0)"/><path class="cls-6" d="M413.16,61.34a15.5,15.5,0,1,1,26.28-16.46" transform="translate(0 0)"/><path class="cls-6" d="M420,31.64a6,6,0,1,1-8.33-1.92A6,6,0,0,1,420,31.64" transform="translate(0 0)"/><rect class="cls-11" x="537.21" y="221.77" width="20.24" height="32.49" transform="translate(67.53 593) rotate(-60)"/><polygon class="cls-18" points="538.32 221.13 547.33 238.02 566.45 237.38 538.32 221.13"/><circle class="cls-31" cx="711.25" cy="218.45" r="10.19"/><path class="cls-11" d="M360.12,257.17h0A13.22,13.22,0,1,1,373.33,244a13.21,13.21,0,0,1-13.21,13.21" transform="translate(0 0)"/><path class="cls-32" d="M360.12,238c1.93,0,2.16,0,2.93,0a3.9,3.9,0,0,1,1.34.25,2.21,2.21,0,0,1,.83.54,2.32,2.32,0,0,1,.55.83A4.24,4.24,0,0,1,366,241c0,.76,0,1,0,2.93s0,2.16,0,2.92a4.24,4.24,0,0,1-.25,1.35,2.23,2.23,0,0,1-.55.83,2.1,2.1,0,0,1-.83.54,3.9,3.9,0,0,1-1.34.25c-.77,0-1,.05-2.93.05s-2.16,0-2.93-.05a3.9,3.9,0,0,1-1.34-.25,2.37,2.37,0,0,1-1.38-1.37,4,4,0,0,1-.25-1.35c0-.76,0-1,0-2.92s0-2.17,0-2.93a4,4,0,0,1,.25-1.35,2.29,2.29,0,0,1,.54-.83,2.33,2.33,0,0,1,.84-.54,3.9,3.9,0,0,1,1.34-.25c.77,0,1,0,2.93,0m0-1.31c-2,0-2.21,0-3,0a5.19,5.19,0,0,0-1.76.33,3.69,3.69,0,0,0-1.28.84,3.52,3.52,0,0,0-.83,1.28,5.17,5.17,0,0,0-.34,1.76c0,.77-.05,1-.05,3s0,2.21.05,3a5.17,5.17,0,0,0,.34,1.76,3.71,3.71,0,0,0,2.11,2.12,5.42,5.42,0,0,0,1.76.34c.78,0,1,0,3,0s2.21,0,3,0a5.35,5.35,0,0,0,1.75-.34A3.69,3.69,0,0,0,367,248.7a5.42,5.42,0,0,0,.34-1.76c0-.77,0-1,0-3s0-2.22,0-3a5.42,5.42,0,0,0-.34-1.76,3.52,3.52,0,0,0-.83-1.28,3.73,3.73,0,0,0-1.29-.84,5.13,5.13,0,0,0-1.75-.33c-.78,0-1,0-3,0" transform="translate(0 0)"/><path class="cls-32" d="M360.12,240.24a3.72,3.72,0,1,0,3.72,3.72,3.71,3.71,0,0,0-3.72-3.72m0,6.13a2.42,2.42,0,1,1,2.41-2.41,2.42,2.42,0,0,1-2.41,2.41" transform="translate(0 0)"/><path class="cls-32" d="M364.86,240.09a.87.87,0,1,1-.87-.87.87.87,0,0,1,.87.87" transform="translate(0 0)"/></svg>