<svg xmlns="http://www.w3.org/2000/svg" xmlns:xlink="http://www.w3.org/1999/xlink" width="240" height="120" viewBox="0 0 240 120"><defs><clipPath id="clip-_105"><rect width="240" height="120"></rect></clipPath></defs><g id="_105" data-name="105" clip-path="url(#clip-_105)"><g id="aws-2" transform="translate(76.332 33.9)"><path id="Path_115442" data-name="Path 115442" d="M34.3,19.343a8.453,8.453,0,0,0,.307,2.486,14.954,14.954,0,0,0,.894,2.011,1.215,1.215,0,0,1,.2.643,1.106,1.106,0,0,1-.531.838L33.4,26.5a1.339,1.339,0,0,1-.726.251,1.286,1.286,0,0,1-.838-.391,8.643,8.643,0,0,1-1.006-1.313c-.279-.475-.559-1.006-.866-1.648a10.32,10.32,0,0,1-8.214,3.855,7.655,7.655,0,0,1-5.588-2.012A7.177,7.177,0,0,1,14.1,19.874a7.192,7.192,0,0,1,2.542-5.755,10.163,10.163,0,0,1,6.845-2.179,22.12,22.12,0,0,1,2.961.223c1.034.14,2.1.363,3.213.615V10.738c0-2.123-.447-3.6-1.313-4.47-.894-.866-2.4-1.285-4.554-1.285a12.711,12.711,0,0,0-3.017.363,22.261,22.261,0,0,0-3.017.95,8.016,8.016,0,0,1-.978.363,1.714,1.714,0,0,1-.447.084c-.391,0-.587-.279-.587-.866V4.508a1.768,1.768,0,0,1,.2-.978,2.092,2.092,0,0,1,.782-.587,16.084,16.084,0,0,1,3.52-1.257A16.938,16.938,0,0,1,24.6,1.156c3.325,0,5.755.754,7.32,2.263,1.537,1.509,2.319,3.8,2.319,6.873v9.052ZM22.956,23.59a9.054,9.054,0,0,0,2.878-.5A6.226,6.226,0,0,0,28.488,21.3a4.434,4.434,0,0,0,.95-1.788,10.03,10.03,0,0,0,.279-2.431V15.907a23.331,23.331,0,0,0-2.57-.475,21.051,21.051,0,0,0-2.626-.168,6.441,6.441,0,0,0-4.163,1.118,3.894,3.894,0,0,0-1.369,3.213,3.6,3.6,0,0,0,3.967,4ZM45.39,26.607a1.56,1.56,0,0,1-1.062-.279,2.277,2.277,0,0,1-.587-1.09l-6.565-21.6a4.894,4.894,0,0,1-.251-1.118.613.613,0,0,1,.67-.7h2.738a1.549,1.549,0,0,1,1.09.279,2.286,2.286,0,0,1,.559,1.09L46.675,21.69,51.033,3.2a1.96,1.96,0,0,1,.531-1.09,1.922,1.922,0,0,1,1.118-.279h2.235a1.681,1.681,0,0,1,1.118.279,1.883,1.883,0,0,1,.531,1.09l4.414,18.718L65.812,3.2a2.4,2.4,0,0,1,.559-1.09,1.823,1.823,0,0,1,1.09-.279h2.6a.621.621,0,0,1,.7.7,2.786,2.786,0,0,1-.056.447,3.974,3.974,0,0,1-.2.7l-6.733,21.6a2.142,2.142,0,0,1-.587,1.09,1.787,1.787,0,0,1-1.062.279h-2.4a1.681,1.681,0,0,1-1.118-.279,1.981,1.981,0,0,1-.531-1.118l-4.33-18.02-4.3,17.992a2.181,2.181,0,0,1-.531,1.118,1.732,1.732,0,0,1-1.118.279Zm35.9.754a18.488,18.488,0,0,1-4.3-.5,12.709,12.709,0,0,1-3.213-1.118,2.013,2.013,0,0,1-.866-.782,1.972,1.972,0,0,1-.168-.782V22.752c0-.587.224-.866.643-.866a1.582,1.582,0,0,1,.5.084c.168.056.419.168.7.279a15.2,15.2,0,0,0,3.073.978,16.778,16.778,0,0,0,3.325.335,7.538,7.538,0,0,0,4.079-.922,3.008,3.008,0,0,0,1.453-2.654,2.721,2.721,0,0,0-.754-1.956,7.01,7.01,0,0,0-2.822-1.453L78.887,15.32a8.521,8.521,0,0,1-4.47-2.85,6.656,6.656,0,0,1-1.4-4.051,6.218,6.218,0,0,1,.754-3.1,7.183,7.183,0,0,1,2.012-2.291,8.867,8.867,0,0,1,2.906-1.453,12.176,12.176,0,0,1,3.52-.475,14.025,14.025,0,0,1,1.872.112c.643.084,1.229.2,1.816.307.559.14,1.09.279,1.592.447a6.1,6.1,0,0,1,1.173.5,2.416,2.416,0,0,1,.838.7,1.506,1.506,0,0,1,.251.922V5.4c0,.587-.224.894-.643.894a2.906,2.906,0,0,1-1.062-.335,12.781,12.781,0,0,0-5.364-1.09,7.211,7.211,0,0,0-3.716.782A2.7,2.7,0,0,0,77.658,8.14a2.638,2.638,0,0,0,.838,1.984,8.345,8.345,0,0,0,3.073,1.537l3.967,1.257a8.5,8.5,0,0,1,4.33,2.682,6.322,6.322,0,0,1,1.285,3.911,7.182,7.182,0,0,1-.726,3.241,7.513,7.513,0,0,1-2.039,2.459,9.005,9.005,0,0,1-3.1,1.565,13.285,13.285,0,0,1-4,.587Z" transform="translate(-8.959)" fill="#252f3e"></path><g id="Group_68766" data-name="Group 68766" transform="translate(1.668 32.416)"><path id="Path_115443" data-name="Path 115443" d="M77.611,126C68.42,132.792,55.066,136.4,43.583,136.4A61.56,61.56,0,0,1,2.04,120.556c-.866-.782-.084-1.844.95-1.229a83.781,83.781,0,0,0,41.571,11.035A82.956,82.956,0,0,0,76.27,123.88C77.807,123.182,79.12,124.886,77.611,126Z" transform="translate(-1.668 -117.48)" fill="#f90" fill-rule="evenodd"></path><path id="Path_115444" data-name="Path 115444" d="M257.5,117.357c-1.173-1.509-7.767-.726-10.756-.363-.894.112-1.034-.671-.224-1.257,5.252-3.688,13.885-2.626,14.891-1.4,1.006,1.257-.279,9.89-5.2,14.025-.754.643-1.481.307-1.145-.531C256.188,125.068,258.674,118.838,257.5,117.357Z" transform="translate(-177.73 -113.192)" fill="#f90" fill-rule="evenodd"></path></g></g></g></svg>