<svg xmlns="http://www.w3.org/2000/svg" xmlns:xlink="http://www.w3.org/1999/xlink" width="240" height="120" viewBox="0 0 240 120"><defs><clipPath id="clip-_27"><rect width="240" height="120"></rect></clipPath></defs><g id="_27" data-name="27" clip-path="url(#clip-_27)"><g id="Group_20042" data-name="Group 20042" transform="translate(9 7.764)"><g id="firebase-seeklogo.com" transform="translate(30 20.068)"><path id="Path_111341" data-name="Path 111341" d="M0,51.477l.386-.541L18.649,16.282l.039-.367L10.637.793a1.494,1.494,0,0,0-2.795.472Z" transform="translate(0 0)" fill="#ffc24a"></path><g id="Group_20040" data-name="Group 20040" transform="translate(0.228 0.237)"><path id="Path_111342" data-name="Path 111342" d="M1.253,52.129l.292-.57L19.617,17.269,11.586,2.085A1.357,1.357,0,0,0,9,2.554Z" transform="translate(-1.253 -1.301)" fill="#ffa712"></path><path id="Path_111343" data-name="Path 111343" d="M1.253,52.129l.292-.57L19.617,17.269,11.586,2.085A1.357,1.357,0,0,0,9,2.554Z" transform="translate(-1.253 -1.301)" fill="#ffa713"></path></g><path id="Path_111344" data-name="Path 111344" d="M108.348,67.625l5.994-6.139-6-11.447a1.545,1.545,0,0,0-2.722,0l-3.2,6.11v.52Z" transform="translate(-83.791 -40.271)" fill="#f4bd62"></path><g id="Group_20041" data-name="Group 20041" transform="translate(18.688 9.186)"><path id="Path_111345" data-name="Path 111345" d="M108.5,68.411l5.828-5.968-5.828-11.1a1.342,1.342,0,0,0-2.445-.107l-3.221,6.2-.1.317Z" transform="translate(-102.739 -50.499)" fill="#ffa50e"></path><path id="Path_111346" data-name="Path 111346" d="M108.5,68.411l5.828-5.968-5.828-11.1a1.342,1.342,0,0,0-2.445-.107l-3.221,6.2-.1.317Z" transform="translate(-102.739 -50.499)" fill="#ffa50d"></path></g><path id="Path_111347" data-name="Path 111347" d="M0,122.737l.175-.176.636-.258L24.181,99.02l.3-.806L18.647,87.1Z" transform="translate(0 -71.261)" fill="#f6820c"></path><path id="Path_111348" data-name="Path 111348" d="M25.306,121.737l21.15-11.8-6.04-37.2a1.445,1.445,0,0,0-2.45-.789L0,109.995l21.029,11.741a4.389,4.389,0,0,0,4.277,0" transform="translate(0 -58.518)" fill="#fde068"></path><path id="Path_111349" data-name="Path 111349" d="M47.321,110.64,41.328,73.725a1.27,1.27,0,0,0-2.2-.8L1.289,110.72l20.8,11.625a4.355,4.355,0,0,0,4.244,0Z" transform="translate(-1.055 -59.315)" fill="#fcca3f"></path><path id="Path_111350" data-name="Path 111350" d="M25.306,292.719a4.389,4.389,0,0,1-4.277,0L.17,281.145,0,281.324l21.029,11.741a4.389,4.389,0,0,0,4.277,0l21.15-11.8-.052-.319Z" transform="translate(0 -229.847)" fill="#eeab37"></path></g><text id="Firebase" transform="translate(84 66.236)" fill="#646464" font-size="28" font-family="ArialMT, Arial"><tspan x="0" y="0">Firebase</tspan></text></g></g></svg>