<svg xmlns="http://www.w3.org/2000/svg" xmlns:xlink="http://www.w3.org/1999/xlink" width="240" height="120" viewBox="0 0 240 120"><defs><clipPath id="clip-_28"><rect width="240" height="120"></rect></clipPath></defs><g id="_28" data-name="28" clip-path="url(#clip-_28)"><g id="Group_20046" data-name="Group 20046" transform="translate(2 -3)"><g id="gopher" transform="translate(38.592 28.95)"><path id="Path_111351" data-name="Path 111351" d="M1.741,174.082c.1,1.982,2.078,1.058,2.963.443.847-.6,1.1-.1,1.174-1.251a18.23,18.23,0,0,0,.1-2.29,5.587,5.587,0,0,0-3.733.962c-.558.385-1.558,1.655-.5,2.136m39.5,24.359c1.52.943,4.31,3.791,2.02,5.176-2.194,2-3.425-2.213-5.349-2.79A5.2,5.2,0,0,1,41.242,198.441Zm-27.206,3.213c-1.789.269-2.79,1.886-4.291,2.713-1.4.827-1.943-.269-2.059-.5-.212-.1-.192.1-.539-.25-1.308-2.059,1.347-3.56,2.732-4.579C11.8,198.653,13.016,200.327,14.036,201.654Zm35.653-27.822c-.1,1.982-2.078,1.058-2.963.443-.847-.6-1.1-.1-1.174-1.251a18.158,18.158,0,0,1-.1-2.289,5.586,5.586,0,0,1,3.733.962c.539.385,1.559,1.655.5,2.136" transform="translate(-0.7 -137.576)" fill="#f6d2a2"></path><path id="Path_111352" data-name="Path 111352" d="M50.2,13.054c6.869-2.424,1.5-11.833-4.483-7.677C41.788,2.01,36.381,1.394,30.705,1.394c-5.56.443-10.852,1.463-14.546,4.695C10.195,2.241,4.692,11.476,11.7,13.8c-1.962,7.619.269,15.392-.039,23.146-.289,6.965-2.116,16.3,1.751,22.55,3.29,5.349,10.371,7.254,16.2,7.466,7.446.269,16.47-1.559,20.087-8.774,3.463-6.869,2.5-15.431,2.059-22.839-.443-7.485.385-15.085-1.559-22.3Z" transform="translate(-6.46 -0.963)" fill="#69d7e2"></path><path id="Path_111353" data-name="Path 111353" d="M49.508,35.083a3.216,3.216,0,0,0-.9-1.116,5.833,5.833,0,0,0-3.194-1.02c-.038-1.193-.077-2.5-.077-4.156v-1.5a87.481,87.481,0,0,0-.346-9.409,38.091,38.091,0,0,0-1-5.7,4.636,4.636,0,0,0,2.982-2.848,4.627,4.627,0,0,0-.462-3.675,4.841,4.841,0,0,0-7.215-1.52,14.676,14.676,0,0,0-4.31-2.482C32.115.6,28.786.2,24.265.2V.392L24.245.2c-4.829.385-8.408,1.135-11.371,2.578A14.136,14.136,0,0,0,9.7,4.856a5.088,5.088,0,0,0-4.271-.673A5.249,5.249,0,0,0,2.407,6.646a4.375,4.375,0,0,0-.366,3.675,4.719,4.719,0,0,0,2.982,2.617,27.848,27.848,0,0,0-.77,6.272,70.429,70.429,0,0,0,.4,7.985c.25,2.982.346,4.348.385,6a5.76,5.76,0,0,0-3.6,1,2.868,2.868,0,0,0-.9,1.116.921.921,0,0,0,.346,1.308c.077.923.6,1.347,1.385,1.27A4.206,4.206,0,0,0,4.139,37.1a2.165,2.165,0,0,1,.4-.231c.058-.019.1-.039.154-.058,0,0,.115-.038.154-.058A.388.388,0,0,0,5,36.68c-.038.9-.115,1.847-.289,4-.192,2.424-.289,3.752-.327,5.233-.173,5.5.481,9.5,2.443,12.679a12.512,12.512,0,0,0,2.251,2.694c-.173.115-.9.654-1.135.827a6.121,6.121,0,0,0-1.693,1.712,2.105,2.105,0,0,0,.058,2.29l.019.019.019.019c.212.212.327.269.481.269H6.89c.019.039.039.058.058.1a2.792,2.792,0,0,0,.173.25,1.46,1.46,0,0,0,2.059.154,8.464,8.464,0,0,0,1.558-1.155l.039-.039a5.04,5.04,0,0,1,2.617-1.5l.308-.058c.115.058.231.1.365.154a27.47,27.47,0,0,0,9.12,1.809,30.873,30.873,0,0,0,11.544-1.6,20.6,20.6,0,0,0,2.559-1.135,4.819,4.819,0,0,1,1.732,1.539.2.2,0,0,1,.058.077c.039.039.039.058.058.077.038.058.1.1.134.154a4.412,4.412,0,0,0,1.539,1.328,1.665,1.665,0,0,0,1.885-.443c1.116-.693,1.193-1.77.462-3a8.237,8.237,0,0,0-2.27-2.347,13.3,13.3,0,0,0,2.54-3.483c1.847-3.694,2.559-8,2.521-13.545-.019-1.962-.1-3.675-.308-6.946v-.1a1.149,1.149,0,0,1,.289.173,4.438,4.438,0,0,0,1.866.789c.789.077,1.308-.346,1.385-1.27a.957.957,0,0,0,.327-1.328ZM43.39,3.7A4.614,4.614,0,0,1,46.16,5.9,4.206,4.206,0,0,1,46.6,9.262a4.209,4.209,0,0,1-2.732,2.578,31.3,31.3,0,0,0-1.02-3.04,1.413,1.413,0,0,0,.385-1.924,1.515,1.515,0,0,0-2-.693A14.379,14.379,0,0,0,39.6,4.414,4.683,4.683,0,0,1,43.39,3.7ZM2.369,10.2a3.923,3.923,0,0,1,.346-3.348,4.842,4.842,0,0,1,2.809-2.27,4.784,4.784,0,0,1,3.867.577,12.66,12.66,0,0,0-2,2.29c-1-.52-2.02-.616-2.6.442-.6,1.135.1,1.847,1.077,2.386-.135.327-.269.674-.385,1.02-.135.423-.269.866-.385,1.308A4.426,4.426,0,0,1,2.369,10.2ZM4.7,36.43c-.019,0-.135.038-.135.058a.691.691,0,0,0-.173.077,1.917,1.917,0,0,0-.462.269,3.734,3.734,0,0,1-1.693.712c-.577.058-.9-.192-.962-.885A1.179,1.179,0,0,0,2,36.2L1.7,35.968c-.115.154-.231.212-.577.327-.019,0-.019,0-.039.019-.308-.173-.365-.443-.192-.827a2.756,2.756,0,0,1,.789-.962A5.25,5.25,0,0,1,5.063,33.6c0,.481.019.962,0,1.424a.423.423,0,0,1-.019.154c-.019.269-.019.385-.038.52-.058.558-.1.635-.308.731Zm5.811,29.034-.039.039a8.552,8.552,0,0,1-1.5,1.116c-.731.443-1.231.346-1.578-.077a1.172,1.172,0,0,1-.135-.193c-.019-.019-.039-.058-.058-.077v-.019a2.555,2.555,0,0,1,.52-1.135c.019-.019.019-.019.019-.038a4.125,4.125,0,0,0,.4-.693l-.346-.154a5.229,5.229,0,0,1-.366.635c-.019.019-.019.019-.019.039a3.189,3.189,0,0,0-.577,1.154H6.756a.7.7,0,0,1-.173-.135c-.75-1.193-.154-2.213,1.539-3.483.212-.154.924-.654,1.116-.808a.273.273,0,0,0,.116-.039,16.161,16.161,0,0,0,3.6,2.29c0,.019.019.039.038.058a5.907,5.907,0,0,0-2.482,1.52Zm32.305-2.1c.6,1,.577,1.809-.173,2.367-.058-.116-.1-.25-.173-.443,0-.019,0-.019-.019-.039a3.5,3.5,0,0,0-.77-1.385l-.269.269a3.037,3.037,0,0,1,.693,1.231c0,.019,0,.019.019.039.1.25.154.4.212.539a1.224,1.224,0,0,1-1.4.289A4.5,4.5,0,0,1,39.522,65a1.074,1.074,0,0,1-.115-.154.268.268,0,0,1-.058-.077.2.2,0,0,1-.058-.077,6.4,6.4,0,0,0-1.6-1.52A15.41,15.41,0,0,0,40.6,61.058a8.995,8.995,0,0,1,2.213,2.309Zm.269-6.234a14.553,14.553,0,0,1-8.5,7.1,30.609,30.609,0,0,1-11.41,1.559c-7.061-.25-13.18-2.713-16.047-7.369C5.2,55.324,4.562,51.38,4.735,45.954c.058-1.482.135-2.809.327-5.233.212-2.732.269-3.521.327-4.752.038-.885.038-1.789.019-2.751-.039-1.693-.135-3.04-.385-6.061a70.088,70.088,0,0,1-.4-7.947,25.79,25.79,0,0,1,1.251-7.831,13.578,13.578,0,0,1,7.177-8.254C15.953,1.7,19.474.97,24.265.585A30.248,30.248,0,0,1,34.847,2.028a13.523,13.523,0,0,1,7.638,6.811A32.258,32.258,0,0,1,44.6,17.9a86.66,86.66,0,0,1,.346,9.37v1.5c.019,2.328.058,3.964.154,5.6.038.635.058.9.154,2.424.212,3.271.289,4.964.308,6.927.039,5.522-.654,9.774-2.482,13.411ZM48.97,36.064c-.019,0-.038-.019-.058-.019a1.1,1.1,0,0,1-.577-.327l-.308.231a1.3,1.3,0,0,0,.731.462c-.077.693-.4.943-.962.885a3.962,3.962,0,0,1-1.693-.712,2.871,2.871,0,0,0-.462-.269c-.019,0-.039-.019-.058-.019-.077-1.058-.077-1.328-.115-1.886l-.058-1.039a5.157,5.157,0,0,1,2.944.943,2.758,2.758,0,0,1,.789.962A.5.5,0,0,1,48.97,36.064Z" transform="translate(0 0)"></path><path id="Path_111354" data-name="Path 111354" d="M115.65,101.182a16.585,16.585,0,0,1,.038,3.1c-.269.5-.77.558-1.212.75a1.812,1.812,0,0,1-1.385-1.077,18.949,18.949,0,0,1,.1-3.463,4.413,4.413,0,0,1,1.385.212,4.651,4.651,0,0,1,1.077.481Zm-5.445.077c-.539,2.04.712,5.368,2.771,2.636a18.3,18.3,0,0,1,.077-3.406A13.663,13.663,0,0,0,110.2,101.259Z" transform="translate(-88.488 -80.909)" fill="#fff"></path><path id="Path_111355" data-name="Path 111355" d="M114.979,99.8c-.039-.577-.058-.808-.058-1.1v-.135l-.135-.039-2.424-.75v-.135l-.25.058h-.019v.019l-2.732.693-.1.019-.039.1a4.433,4.433,0,0,0,.212,3.5c.616,1.077,1.616,1.1,2.636-.135a1.969,1.969,0,0,0,1.443,1.039h.058l.058-.019c.077-.039.154-.058.289-.116.019,0,.019,0,.038-.019a1.429,1.429,0,0,0,.981-.712l.019-.019v-.038a6.8,6.8,0,0,0,.077-1.116C115.037,100.611,115.017,100.342,114.979,99.8Zm-3.079-.712c-.019.346-.038.481-.058.673a10.806,10.806,0,0,0,.019,1.789c-.9,1.155-1.616,1.155-2.1.289a4.055,4.055,0,0,1-.212-3.078l2.424-.616C111.958,98.4,111.939,98.649,111.9,99.091Zm2.694,2.848c-.135.231-.308.346-.77.5-.019,0-.019,0-.038.019-.115.039-.192.077-.25.1a1.6,1.6,0,0,1-1.174-.923,10.575,10.575,0,0,1-.019-1.77c.019-.193.019-.327.058-.674.038-.442.058-.712.058-.962l2.1.635c0,.25.019.481.058.981.038.52.058.789.058,1.1A5.434,5.434,0,0,1,114.594,101.939Z" transform="translate(-87.586 -78.625)"></path><g id="Group_20043" data-name="Group 20043" transform="translate(9.816 4.461)"><path id="Path_111356" data-name="Path 111356" d="M1.68,8.524c1.77,6.888,12.795,5.118,12.372-1.789C13.551-1.539-.014.058,1.679,8.524" transform="translate(-1.36 -1.094)" fill="#fff"></path><path id="Path_111357" data-name="Path 111357" d="M13.52,5.906a5.633,5.633,0,0,0-2.463-4.541A7.02,7.02,0,0,0,6.3.345,6.9,6.9,0,0,0,1.976,2.558,5.88,5.88,0,0,0,.783,7.715l.173-.039-.173.039C2.591,14.795,13.943,13.083,13.52,5.906ZM1.129,7.676A5.505,5.505,0,0,1,2.245,2.827a6.513,6.513,0,0,1,4.1-2.1,6.519,6.519,0,0,1,4.5.962,5.3,5.3,0,0,1,2.309,4.271c.4,6.715-10.313,8.331-12.025,1.712Z" transform="translate(-0.636 -0.285)"></path><ellipse id="Ellipse_3962" data-name="Ellipse 3962" cx="1.866" cy="2.02" rx="1.866" ry="2.02" transform="translate(1.493 4.274)"></ellipse><ellipse id="Ellipse_3963" data-name="Ellipse 3963" cx="0.443" cy="0.519" rx="0.443" ry="0.519" transform="translate(3.764 6.237)" fill="#fff"></ellipse></g><g id="Group_20044" data-name="Group 20044" transform="translate(25.391 3.806)"><path id="Path_111358" data-name="Path 111358" d="M1.137,8.308c1.366,7.908,14.3,5.811,12.43-2.155C11.893-1.005.675.977,1.137,8.308" transform="translate(-0.931 -1.51)" fill="#fff"></path><path id="Path_111359" data-name="Path 111359" d="M12.938,5.373C11.226-2-.318.024.144,7.586v.019c.635,3.733,3.964,5.638,7.638,5.022a6.87,6.87,0,0,0,4.156-2.289,5.552,5.552,0,0,0,1-4.964ZM11.65,10.106a6.463,6.463,0,0,1-3.925,2.155c-3.483.577-6.6-1.212-7.215-4.714C.086.428,10.976-1.477,12.592,5.45A5.186,5.186,0,0,1,11.65,10.106Z" transform="translate(-0.13 -0.769)"></path><ellipse id="Ellipse_3964" data-name="Ellipse 3964" cx="1.828" cy="2.02" rx="1.828" ry="2.02" transform="translate(1.553 4.431)"></ellipse><ellipse id="Ellipse_3965" data-name="Ellipse 3965" cx="0.423" cy="0.519" rx="0.423" ry="0.519" transform="translate(3.804 6.393)" fill="#fff"></ellipse></g><g id="Group_20045" data-name="Group 20045" transform="translate(19.734 13.915)"><path id="Path_111360" data-name="Path 111360" d="M103.56,82.118a2.394,2.394,0,0,0-1.962,3.348c1.039,1.886,3.367-.173,4.81.019,1.674.039,3.04,1.77,4.368.308,1.482-1.616-.635-3.194-2.309-3.887l-4.906.212Z" transform="translate(-101.18 -79.839)" fill="#f6d2a2"></path><path id="Path_111361" data-name="Path 111361" d="M110.249,82.683a6.138,6.138,0,0,0-2.405-1.655l-.038-.019h-.038l-4.926.193a2.593,2.593,0,0,0-2.117,3.636,1.607,1.607,0,0,0,1.366.9,4.253,4.253,0,0,0,1.616-.327c.058-.019.135-.039.231-.077a3.812,3.812,0,0,1,1.732-.365h.019a4.2,4.2,0,0,1,1.578.423,4.86,4.86,0,0,0,1.462.462,1.75,1.75,0,0,0,1.482-.635A1.778,1.778,0,0,0,110.249,82.683Zm-.327,2.27a1.387,1.387,0,0,1-1.174.52,4.208,4.208,0,0,1-1.347-.423,4.489,4.489,0,0,0-1.693-.462,4.169,4.169,0,0,0-1.9.385c-.1.038-.173.058-.231.077-1.4.481-2.078.443-2.54-.4a2.216,2.216,0,0,1,1.809-3.078l4.868-.193a5.812,5.812,0,0,1,2.232,1.539,1.386,1.386,0,0,1-.019,2.039Z" transform="translate(-100.461 -79.115)" fill="#231f20"></path><path id="Path_111362" data-name="Path 111362" d="M117.264,72.657c-.6-2.193-5.6-1.866-5.484.75C112.03,75.351,117.841,74.831,117.264,72.657Z" transform="translate(-109.592 -71.206)"></path></g></g><text id="Golang" transform="translate(95 74)" font-size="31" font-family="GillSans-Bold, Gill Sans" font-weight="700"><tspan x="0" y="0">Golang</tspan></text></g></g></svg>