<svg xmlns="http://www.w3.org/2000/svg" xmlns:xlink="http://www.w3.org/1999/xlink" width="240" height="120" viewBox="0 0 240 120"><defs><clipPath id="clip-_104"><rect width="240" height="120"></rect></clipPath></defs><g id="_104" data-name="104" clip-path="url(#clip-_104)"><g id="google-cloud-3" transform="translate(20.955 44.856)"><path id="Path_115437" data-name="Path 115437" d="M23.672,8.2H24.78l3.158-3.158L28.093,3.7A14.2,14.2,0,0,0,5,10.622a1.718,1.718,0,0,1,1.108-.066l6.316-1.042s.321-.532.488-.5A7.879,7.879,0,0,1,23.694,8.2Z" transform="translate(0.428 0)" fill="#ea4335"></path><path id="Path_115438" data-name="Path 115438" d="M31.175,10.275A14.228,14.228,0,0,0,26.887,3.36L22.454,7.793a7.879,7.879,0,0,1,2.892,6.25v.787a3.945,3.945,0,1,1,0,7.89h-7.89l-.787.8v4.732l.787.787h7.89a10.261,10.261,0,0,0,5.829-18.761Z" transform="translate(1.689 0.348)" fill="#4285f4"></path><path id="Path_115439" data-name="Path 115439" d="M10.854,27.141h7.89V20.825h-7.89a3.922,3.922,0,0,1-1.628-.354l-1.109.343-3.18,3.158L4.66,25.08a10.206,10.206,0,0,0,6.194,2.061Z" transform="translate(0.391 2.198)" fill="#34a853"></path><path id="Path_115440" data-name="Path 115440" d="M11.245,8A10.261,10.261,0,0,0,5.051,26.395l4.577-4.577A3.945,3.945,0,1,1,14.847,16.6l4.577-4.577A10.25,10.25,0,0,0,11.245,8Z" transform="translate(0 0.849)" fill="#fbbc05"></path><g id="Group_68765" data-name="Group 68765" transform="translate(48.001 4.416)"><path id="Path_115441" data-name="Path 115441" d="M53.8,24.511a10.1,10.1,0,0,1-7.314-3,9.752,9.752,0,0,1-3.07-7.225,9.763,9.763,0,0,1,3.07-7.225A10.1,10.1,0,0,1,53.8,4a9.8,9.8,0,0,1,7.014,2.826L58.845,8.832A7.1,7.1,0,0,0,53.8,6.837,7.026,7.026,0,0,0,48.6,9.053a7.236,7.236,0,0,0-2.139,5.264,7.236,7.236,0,0,0,2.139,5.2,7.436,7.436,0,0,0,10.372.122,5.9,5.9,0,0,0,1.518-3.446H53.836V13.353h9.408a9,9,0,0,1,.111,1.729,8.865,8.865,0,0,1-2.427,6.538A9.43,9.43,0,0,1,53.8,24.511Zm21.874-1.884a6.782,6.782,0,0,1-9.386,0,6.316,6.316,0,0,1-1.917-4.71,6.327,6.327,0,0,1,1.917-4.71,6.793,6.793,0,0,1,9.386,0,6.327,6.327,0,0,1,1.917,4.71,6.316,6.316,0,0,1-1.928,4.71Zm-7.314-1.851a3.59,3.59,0,0,0,5.241,0,3.945,3.945,0,0,0,1.108-2.859,3.956,3.956,0,0,0-1.108-2.87,3.646,3.646,0,0,0-5.264,0,3.956,3.956,0,0,0-1.108,2.87,3.945,3.945,0,0,0,1.119,2.859Zm21.741,1.851a6.782,6.782,0,0,1-9.386,0,6.316,6.316,0,0,1-1.917-4.71,6.327,6.327,0,0,1,1.917-4.71,6.782,6.782,0,0,1,9.386,0,6.327,6.327,0,0,1,1.917,4.71,6.316,6.316,0,0,1-1.917,4.71Zm-7.314-1.851a3.59,3.59,0,0,0,5.241,0,3.945,3.945,0,0,0,1.108-2.859,3.956,3.956,0,0,0-1.108-2.87,3.646,3.646,0,0,0-5.264,0,3.956,3.956,0,0,0-1.108,2.87,3.945,3.945,0,0,0,1.119,2.859Zm16.8,9.652a5.807,5.807,0,0,1-3.69-1.175,6.793,6.793,0,0,1-2.15-2.726l2.527-1.053a4.255,4.255,0,0,0,1.252,1.651,3.158,3.158,0,0,0,2.072.7,3.324,3.324,0,0,0,2.582-1,4.045,4.045,0,0,0,.92-2.881v-.953H103a4.222,4.222,0,0,1-3.468,1.5A6.017,6.017,0,0,1,95.1,22.561a6.372,6.372,0,0,1-1.895-4.643A6.438,6.438,0,0,1,95.1,13.242,6.006,6.006,0,0,1,99.536,11.3a4.765,4.765,0,0,1,2.039.454,4.1,4.1,0,0,1,1.441,1.053h.1V11.757h2.748v11.8a6.881,6.881,0,0,1-1.762,5.153,6.206,6.206,0,0,1-4.51,1.718Zm.2-8.51a3.225,3.225,0,0,0,2.5-1.108,4.1,4.1,0,0,0,1.008-2.837,4.189,4.189,0,0,0-1.008-2.892,3.214,3.214,0,0,0-2.5-1.108A3.424,3.424,0,0,0,97.2,15.081a4.045,4.045,0,0,0-1.108,2.87A3.967,3.967,0,0,0,97.2,20.788a3.435,3.435,0,0,0,2.593,1.13ZM110.75,4.743v19.37h-2.892V4.743Zm7.934,19.769a6.294,6.294,0,0,1-4.665-1.895,6.416,6.416,0,0,1-1.873-4.7,6.494,6.494,0,0,1,1.806-4.743,5.94,5.94,0,0,1,4.433-1.851,5.6,5.6,0,0,1,2.216.432,5.219,5.219,0,0,1,1.7,1.108,7.757,7.757,0,0,1,1.108,1.341,7.923,7.923,0,0,1,.654,1.3l.3.754L115.493,19.9a3.324,3.324,0,0,0,3.191,1.995,3.779,3.779,0,0,0,3.247-1.828l2.216,1.5a7.3,7.3,0,0,1-2.128,2.017,6.028,6.028,0,0,1-3.335.931Zm-3.7-6.793,5.9-2.449a2.039,2.039,0,0,0-.92-1.008,3,3,0,0,0-1.518-.388,3.424,3.424,0,0,0-2.382,1.053,3.513,3.513,0,0,0-1.075,2.792Zm24.523,6.793a9.131,9.131,0,0,1-9.286-9.341,9.131,9.131,0,0,1,9.286-9.342,8.267,8.267,0,0,1,6.571,2.925l-1.6,1.551a6.028,6.028,0,0,0-4.964-2.272,6.771,6.771,0,0,0-4.931,1.972,6.915,6.915,0,0,0-2.006,5.164,6.915,6.915,0,0,0,2.006,5.164,6.771,6.771,0,0,0,4.931,1.972,7.048,7.048,0,0,0,5.541-2.593l1.6,1.6a8.71,8.71,0,0,1-3.07,2.338,9.4,9.4,0,0,1-4.078.864Zm11.436-.4h-2.294V6.216h2.294Zm3.745-10.771a6.416,6.416,0,0,1,9.042,0A6.483,6.483,0,0,1,165.5,18a6.483,6.483,0,0,1-1.773,4.654,6.416,6.416,0,0,1-9.042,0A6.483,6.483,0,0,1,152.914,18a6.483,6.483,0,0,1,1.773-4.654Zm1.707,7.868a3.867,3.867,0,0,0,5.618,0A4.433,4.433,0,0,0,163.2,18a4.433,4.433,0,0,0-1.186-3.214,3.867,3.867,0,0,0-5.618,0A4.432,4.432,0,0,0,155.208,18a4.432,4.432,0,0,0,1.2,3.2Zm21.819,2.9H176v-1.7h-.066a4.266,4.266,0,0,1-1.618,1.529,4.521,4.521,0,0,1-2.272.609,4.311,4.311,0,0,1-3.48-1.4,5.541,5.541,0,0,1-1.186-3.745V11.879h2.294v7.114q0,3.424,3.025,3.424a2.815,2.815,0,0,0,2.327-1.108,4.178,4.178,0,0,0,.9-2.648V11.879h2.294Zm7.79.4a5.385,5.385,0,0,1-4.1-1.873A6.649,6.649,0,0,1,180.185,18a6.649,6.649,0,0,1,1.718-4.643A5.385,5.385,0,0,1,186,11.48a5.2,5.2,0,0,1,2.5.6,4.244,4.244,0,0,1,1.662,1.5h.1l-.1-1.7V6.216h2.294v17.9h-2.216v-1.7h-.1a4.244,4.244,0,0,1-1.662,1.5,5.2,5.2,0,0,1-2.482.6Zm.377-2.094a3.657,3.657,0,0,0,2.759-1.2A4.488,4.488,0,0,0,190.247,18a4.488,4.488,0,0,0-1.108-3.225,3.745,3.745,0,0,0-5.541,0,4.433,4.433,0,0,0-1.108,3.214A4.433,4.433,0,0,0,183.6,21.2,3.657,3.657,0,0,0,186.379,22.417Z" transform="translate(-43.419 -3.999)" fill="#5f6368"></path></g></g></g></svg>