<svg xmlns="http://www.w3.org/2000/svg" xmlns:xlink="http://www.w3.org/1999/xlink" width="240" height="120" viewBox="0 0 240 120"><defs><clipPath id="clip-_87"><rect width="240" height="120"></rect></clipPath></defs><g id="_87" data-name="87" clip-path="url(#clip-_87)"><g id="google-analytics-4" transform="translate(34 36.898)"><path id="Path_115413" data-name="Path 115413" d="M1604.677,38.761a5.5,5.5,0,0,1-5.474,5.532,5.257,5.257,0,0,1-.677-.038,5.643,5.643,0,0,1-4.816-5.72V5.779a5.646,5.646,0,0,1,4.825-5.72,5.5,5.5,0,0,1,6.142,5.494Z" transform="translate(-1564.677 0)" fill="#f9ab00"></path><path id="Path_115414" data-name="Path 115414" d="M5.485,932.724A5.485,5.485,0,1,1,0,938.208,5.485,5.485,0,0,1,5.485,932.724ZM19.915,916.1a5.644,5.644,0,0,0-5.334,5.767V936.6c0,4,1.76,6.425,4.337,6.942a5.493,5.493,0,0,0,6.476-4.294,5.369,5.369,0,0,0,.109-1.106V921.614A5.5,5.5,0,0,0,20.01,916.1C19.979,916.1,19.946,916.1,19.915,916.1Z" transform="translate(0 -899.391)" fill="#e37400"></path><g id="Group_68762" data-name="Group 68762" transform="translate(128.3 -274.298)"><path id="Path_115419" data-name="Path 115419" d="M-58.5,303.9h-8.6l-3,7.5h-1.6l8.6-21.3h.9l8.4,21.3h-1.7l-3-7.5Zm-8.1-1.3H-59l-2.9-7.7c-.2-.6-.5-1.4-.9-2.5a14.545,14.545,0,0,1-.9,2.5l-2.9,7.7Zm26.4,8.8V301.2a5.049,5.049,0,0,0-1-3.5,3.809,3.809,0,0,0-3.1-1.1,5.738,5.738,0,0,0-4.2,1.4c-.9,1-1.3,2.5-1.3,4.6v8.7h-1.4V295.6H-50l.3,2.2h.1c1-1.6,2.9-2.5,5.5-2.5,3.6,0,5.4,1.9,5.4,5.8v10.3h-1.5Zm14.9,0-.4-2.5h-.1a8.43,8.43,0,0,1-2.5,2.2,6.679,6.679,0,0,1-3,.6,4.889,4.889,0,0,1-3.6-1.2,4.156,4.156,0,0,1-1.3-3.3,4.131,4.131,0,0,1,1.9-3.6c1.3-.9,3.1-1.3,5.6-1.4l3-.1v-1a5.51,5.51,0,0,0-.9-3.4,3.471,3.471,0,0,0-3-1.1,10.178,10.178,0,0,0-4.6,1.2l-.5-1.3a12.229,12.229,0,0,1,5.1-1.2,5.3,5.3,0,0,1,3.9,1.4,5.722,5.722,0,0,1,1.3,4.2v10.5h-.9Zm-5.8-1a5.721,5.721,0,0,0,4-1.4,5.2,5.2,0,0,0,1.5-4v-1.6l-2.8.1a11.363,11.363,0,0,0-4.7,1,3.067,3.067,0,0,0-1.4,2.7,2.869,2.869,0,0,0,.9,2.3A3.327,3.327,0,0,0-31.1,310.4Zm12.9,1h-1.4V288.8h1.4Zm2-15.8h1.5l3.3,8.9c1,2.7,1.7,4.6,1.9,5.5h.1c.4-1.2,1.1-3.1,2-5.6l3.3-8.8h1.5L-9.7,314a22.9,22.9,0,0,1-1.4,3,3.326,3.326,0,0,1-1.4,1.2,3.576,3.576,0,0,1-1.9.4,5.663,5.663,0,0,1-1.8-.3V317a5.537,5.537,0,0,0,1.8.2,2.768,2.768,0,0,0,1.3-.3,2.707,2.707,0,0,0,1-1.1,16.922,16.922,0,0,0,1.1-2.3c.4-1,.7-1.8.8-2.1l-6-15.8ZM5.5,310.4a16.591,16.591,0,0,0,2.4-.2v1.2a8.75,8.75,0,0,1-2.4.3,4.168,4.168,0,0,1-3.1-1.1,4.886,4.886,0,0,1-1-3.5V296.9H-1v-.8l2.3-.7.7-3.6h.7v3.8H7.3v1.3H2.7v10a4.909,4.909,0,0,0,.6,2.7,3.3,3.3,0,0,0,2.2.8Zm4.4-19.2c0-.9.3-1.4.9-1.4a.755.755,0,0,1,.7.4,1.817,1.817,0,0,1,0,2,.755.755,0,0,1-.7.4C10.2,292.6,9.9,292.2,9.9,291.2Zm1.7,20.2H10.2V295.6h1.4Zm9.8.3a6.783,6.783,0,0,1-5.3-2.1c-1.3-1.4-1.9-3.4-1.9-6a8.78,8.78,0,0,1,2-6.1,7.142,7.142,0,0,1,5.5-2.2,10.016,10.016,0,0,1,3.9.7l-.4,1.3a10.789,10.789,0,0,0-3.6-.7,5.446,5.446,0,0,0-4.4,1.8,7.866,7.866,0,0,0-1.5,5.2,7.647,7.647,0,0,0,1.5,5,5.166,5.166,0,0,0,4.2,1.8,10.571,10.571,0,0,0,4-.8v1.3a8.173,8.173,0,0,1-4,.8Zm17-4.4a3.816,3.816,0,0,1-1.6,3.3,7.651,7.651,0,0,1-4.6,1.1,10.088,10.088,0,0,1-5-1v-1.6a11.148,11.148,0,0,0,5,1.2,7.11,7.11,0,0,0,3.6-.8,2.172,2.172,0,0,0,1.2-2.1,2.334,2.334,0,0,0-1-2,10.379,10.379,0,0,0-3.2-1.6,18.151,18.151,0,0,1-3.3-1.5,4.66,4.66,0,0,1-1.4-1.4,3.83,3.83,0,0,1-.5-1.9,3.219,3.219,0,0,1,1.5-2.8,7.256,7.256,0,0,1,4.2-1,11.942,11.942,0,0,1,4.9,1l-.5,1.3a12.611,12.611,0,0,0-4.3-1,6.841,6.841,0,0,0-3.1.6,1.831,1.831,0,0,0-1.1,1.8,2.518,2.518,0,0,0,.9,2,14.761,14.761,0,0,0,3.4,1.7,15.776,15.776,0,0,1,3.1,1.4,6.73,6.73,0,0,1,1.5,1.4A5.822,5.822,0,0,1,38.4,307.3Z" fill="#75787d"></path></g></g></g></svg>