<svg xmlns="http://www.w3.org/2000/svg" xmlns:xlink="http://www.w3.org/1999/xlink" width="240" height="120" viewBox="0 0 240 120"><defs><clipPath id="clip-_31"><rect width="240" height="120"></rect></clipPath></defs><g id="_31" data-name="31" clip-path="url(#clip-_31)"><g id="mongodb-seeklogo.com" transform="translate(33 34.882)"><g id="Group_20050" data-name="Group 20050" transform="translate(0 0.203)"><path id="Path_111364" data-name="Path 111364" d="M414.184,57.116c-.157.031-.314.377-.314.566-.031,1.257-.063,4.589-.063,6.852a.233.233,0,0,0,.188.188c.471.031,1.6.063,2.577.063a6.722,6.722,0,0,0,2.578-.377,3.338,3.338,0,0,0,1.665-3.143c0-3.049-2.137-4.212-5.312-4.212a5.056,5.056,0,0,0-1.32.063Zm8.109,14.049c0-3.112-2.295-4.84-6.443-4.84a18.212,18.212,0,0,0-1.823.031c-.094.031-.22.094-.22.189,0,2.231-.032,5.783.063,7.166a2.372,2.372,0,0,0,1.037,1.7,7.194,7.194,0,0,0,2.734.377c2.483,0,4.652-1.383,4.652-4.62ZM407.773,55.388c.314,0,1.257.094,3.677.094,2.295,0,4.117-.063,6.349-.063,2.734,0,6.506.974,6.506,5.06a4.928,4.928,0,0,1-3.269,4.4c-.094.031-.094.094,0,.126,2.64.66,4.966,2.295,4.966,5.375,0,3.017-1.886,4.935-4.62,6.129a15.034,15.034,0,0,1-5.846.974c-1.6,0-5.909-.188-8.3-.125-.251-.095.22-1.226.44-1.414a5.866,5.866,0,0,0,1.6-.252c.849-.22.943-.471,1.068-1.76.063-1.1.063-5,.063-7.763,0-3.8.032-6.38,0-7.637-.031-.974-.377-1.289-1.068-1.477-.534-.094-1.414-.22-2.138-.314-.157-.157.377-1.226.566-1.352ZM389.637,74.937a6.337,6.337,0,0,0,3.552.848,6.965,6.965,0,0,0,5.029-1.791c1.666-1.508,2.829-3.834,2.829-7.543,0-3.552-1.351-6.443-4.117-8.14a11.12,11.12,0,0,0-5.909-1.383,4.707,4.707,0,0,0-1.76.22.924.924,0,0,0-.314.5c-.063.629-.063,5.469-.063,8.3,0,2.923,0,7.009.063,7.48a1.95,1.95,0,0,0,.691,1.509ZM382.5,55.388c.6,0,2.892.094,3.992.094,1.981,0,3.395-.094,7.135-.094a11.628,11.628,0,0,1,7.669,2.451,10.191,10.191,0,0,1,3.489,8.046,10.532,10.532,0,0,1-4.338,9.052c-2.168,1.6-5,2.546-9.02,2.546-2.137,0-5.814-.063-8.863-.094h-.031c-.157-.283.251-1.383.5-1.414a5,5,0,0,0,1.446-.283c.66-.251.786-.6.88-1.76.094-2.169.063-4.777.063-7.732,0-2.106.031-6.223-.032-7.543-.094-1.1-.565-1.383-1.508-1.571-.471-.094-1.1-.22-1.98-.314-.126-.22.44-1.194.6-1.383Z" transform="translate(-251.822 -36.592)" fill="#8e714e" fill-rule="evenodd"></path><path id="Path_111365" data-name="Path 111365" d="M147.159,90.28a6.321,6.321,0,0,1-2.043-.534.958.958,0,0,1-.252-.5c-.063-1.1-.063-4.243-.063-6.349a7.409,7.409,0,0,0-1.006-4.212A4.292,4.292,0,0,0,140.15,76.8a8.408,8.408,0,0,0-4.777,2.263c-.031.031-.283.251-.251-.094,0-.346.063-1.037.094-1.509a.816.816,0,0,0-.22-.66,20.974,20.974,0,0,1-4.872,1.257c-.754.157-.943.88-.157,1.132H130a6.976,6.976,0,0,1,1.854.817.978.978,0,0,1,.283.88c.031,2.357.031,5.972-.063,7.952-.031.786-.251,1.068-.817,1.194l.063-.031a12.409,12.409,0,0,1-1.32.251,1.837,1.837,0,0,0,0,1.414c.346,0,2.169-.094,3.678-.094,2.074,0,3.143.094,3.677.094a2.044,2.044,0,0,0,.157-1.414,5.819,5.819,0,0,1-1.445-.22c-.566-.126-.723-.408-.755-1.068-.062-1.666-.062-5.186-.062-7.575a1.515,1.515,0,0,1,.377-1.163,4.755,4.755,0,0,1,2.923-1.069,3.249,3.249,0,0,1,2.169.723,3.091,3.091,0,0,1,1.006,1.98c.157,1.352.094,4.023.094,6.349,0,1.257-.094,1.571-.566,1.728a5.988,5.988,0,0,1-1.446.283,1.84,1.84,0,0,0,0,1.414c.911,0,1.98-.094,3.552-.094,1.949,0,3.206.094,3.709.094a2.19,2.19,0,0,0,.094-1.352Zm8.706-12.006c-1.666,0-2.7,1.289-2.7,3.3,0,2.043.911,4.4,3.489,4.4a2.435,2.435,0,0,0,1.634-.629,4.162,4.162,0,0,0,1.006-2.891c0-2.609-1.289-4.18-3.426-4.18Zm-.22,13.892a2.7,2.7,0,0,0-1.351.346c-1.32.848-1.917,1.665-1.917,2.64a2.78,2.78,0,0,0,1.1,2.263,5.584,5.584,0,0,0,3.771,1.163c3.206,0,4.62-1.729,4.62-3.426a2.4,2.4,0,0,0-1.823-2.42,12.7,12.7,0,0,0-4.4-.566Zm.22,8.172a6.954,6.954,0,0,1-4.494-1.32,4.143,4.143,0,0,1-1.666-3.112,2.408,2.408,0,0,1,.629-1.571,16.654,16.654,0,0,1,2.892-2.326c.063-.031.094-.063.094-.126a.208.208,0,0,0-.126-.157,2.992,2.992,0,0,1-2.043-1.98v-.063c-.031-.189-.094-.377.189-.566.22-.157.534-.346.88-.566a12.866,12.866,0,0,0,1.446-.943.23.23,0,0,0,.063-.188.208.208,0,0,0-.126-.157,4.583,4.583,0,0,1-3.3-4.809,4.772,4.772,0,0,1,2.011-3.96,9.239,9.239,0,0,1,4.526-1.54h.094a9.633,9.633,0,0,1,3.457.754,5.819,5.819,0,0,0,2.043.314,2.72,2.72,0,0,0,2.2-.817,1.706,1.706,0,0,1,.126.628,2.374,2.374,0,0,1-.409,1.446,1.786,1.786,0,0,1-1.383.6h-.157a6.99,6.99,0,0,1-.817-.126l-.126.063c-.031.063,0,.126.031.22l.032.063a11.614,11.614,0,0,1,.188,1.352,5.092,5.092,0,0,1-2.137,4.557A7.238,7.238,0,0,1,156.3,87.42a3.954,3.954,0,0,0-.44.031c-.157,0-.377.032-.409.032h-.031c-.251.063-.88.377-.88.911,0,.471.283,1.037,1.634,1.132.283.031.566.031.88.063a27.556,27.556,0,0,1,5.06.628,3.522,3.522,0,0,1,2.357,3.363c0,2.326-1.666,4.495-4.431,5.846a10.111,10.111,0,0,1-4.18.912ZM173.78,78.431a2.919,2.919,0,0,0-1.7.471c-1.225.754-1.854,2.263-1.854,4.463,0,4.118,2.074,7.009,5.029,7.009a3.2,3.2,0,0,0,2.169-.754c.911-.755,1.383-2.263,1.383-4.369,0-4.086-2.043-6.82-5.029-6.82Zm.566,13.452c-5.343,0-7.26-3.929-7.26-7.606a6.8,6.8,0,0,1,3.111-5.972,9.461,9.461,0,0,1,4.809-1.414c4.086,0,6.946,2.923,6.946,7.135a7.3,7.3,0,0,1-3.3,6.506,8.716,8.716,0,0,1-4.306,1.351ZM118.338,78.431a2.92,2.92,0,0,0-1.7.471c-1.225.754-1.854,2.263-1.854,4.463,0,4.118,2.074,7.009,5.029,7.009a3.2,3.2,0,0,0,2.169-.754c.911-.755,1.383-2.263,1.383-4.369,0-4.086-2.012-6.82-5.029-6.82Zm.566,13.452c-5.343,0-7.26-3.929-7.26-7.606a6.8,6.8,0,0,1,3.111-5.972,9.461,9.461,0,0,1,4.809-1.414c4.086,0,6.946,2.923,6.946,7.135a7.3,7.3,0,0,1-3.3,6.506,8.514,8.514,0,0,1-4.306,1.351Zm-35.924-.314a1.346,1.346,0,0,1-.094-.723,1.06,1.06,0,0,1,.094-.471,11.6,11.6,0,0,0,1.383-.283c.629-.157.88-.5.912-1.288.094-1.886.094-5.469.063-7.952v-.063a.952.952,0,0,0-.346-.88,7.082,7.082,0,0,0-1.886-.817c-.283-.094-.471-.251-.44-.44,0-.189.188-.408.6-.471a23.016,23.016,0,0,0,4.809-1.226.777.777,0,0,1,.157.5L88.2,77.8c-.031.346-.063.755-.063,1.163a.243.243,0,0,0,.251.22.446.446,0,0,0,.189-.063,8.864,8.864,0,0,1,4.777-2.137A4.069,4.069,0,0,1,97,79.217a.237.237,0,0,0,.22.126.223.223,0,0,0,.188-.094,9.552,9.552,0,0,1,4.934-2.263c2.923,0,4.652,2.169,4.652,5.846,0,1.037,0,2.389-.031,3.615,0,1.1-.031,2.106-.031,2.829a.988.988,0,0,0,.566.754,6.7,6.7,0,0,0,1.823.44h.031a2.521,2.521,0,0,1-.188,1.194,7.724,7.724,0,0,1-.786-.031c-.6-.032-1.446-.063-2.389-.063-1.948,0-2.954.031-3.929.094a3.054,3.054,0,0,1,0-1.194,9.694,9.694,0,0,0,1.194-.283c.629-.188.786-.471.817-1.288,0-.6.126-5.689-.063-6.915a3.1,3.1,0,0,0-3.206-2.734,5.572,5.572,0,0,0-3.206,1.226.56.56,0,0,0-.126.314v.031a14.515,14.515,0,0,1,.126,2.577V85.44c0,1.414-.032,2.735,0,3.74a.921.921,0,0,0,.754.975c.189.031.314.063.471.094.283.063.566.126,1.006.22a1.7,1.7,0,0,1-.031.88.6.6,0,0,1-.126.314C98.6,91.632,97.5,91.6,95.9,91.6c-.471,0-1.289.032-1.98.032-.566,0-1.1.031-1.414.031a1.659,1.659,0,0,1-.095-.629.979.979,0,0,1,.126-.566,2.125,2.125,0,0,1,.44-.063c.377-.063.691-.126,1.005-.189.534-.157.723-.44.754-1.131a54.543,54.543,0,0,0-.031-7.2c-.377-1.823-1.414-2.734-3.08-2.734a5.769,5.769,0,0,0-3.206,1.226,1.018,1.018,0,0,0-.283.723v1.854c0,2.263,0,5.092.031,6.318a.975.975,0,0,0,.88.974,6.584,6.584,0,0,0,.723.126l.566.094a2.641,2.641,0,0,1-.094,1.194c-.314,0-.691-.031-1.132-.031-.66-.032-1.508-.063-2.451-.063-1.1,0-1.886.031-2.515.063a7.592,7.592,0,0,0-1.163-.063Z" transform="translate(-54.508 -50.71)" fill="#442d22" fill-rule="evenodd"></path><g id="Group_20049" data-name="Group 20049" transform="translate(0 0)"><path id="Path_111366" data-name="Path 111366" d="M27.253,60.37l-1.289-.44s.157-6.569-2.2-7.04c-1.571-1.823.251-77.318,5.909-.252a4.6,4.6,0,0,0-2.294,2.64,24.243,24.243,0,0,0-.126,5.092Z" transform="translate(-15.315 -11.967)" fill="#fff" fill-rule="evenodd"></path><path id="Path_111367" data-name="Path 111367" d="M27.253,60.37l-1.289-.44s.157-6.569-2.2-7.04c-1.571-1.823.251-77.318,5.909-.252a4.6,4.6,0,0,0-2.294,2.64,24.243,24.243,0,0,0-.126,5.092Z" transform="translate(-15.315 -11.967)" fill="#a6a385" fill-rule="evenodd"></path><path id="Path_111368" data-name="Path 111368" d="M33.25,42.5s11.283-7.418,8.643-22.85c-2.546-11.22-8.549-14.9-9.209-16.312A15.856,15.856,0,0,1,31.27.572l.472,31.21c0,.031-.975,9.555,1.509,10.718" transform="translate(-20.62 -0.447)" fill="#fff" fill-rule="evenodd"></path><path id="Path_111369" data-name="Path 111369" d="M33.25,42.5s11.283-7.418,8.643-22.85c-2.546-11.22-8.549-14.9-9.209-16.312A15.856,15.856,0,0,1,31.27.572l.472,31.21c0,.031-.975,9.555,1.509,10.718" transform="translate(-20.62 -0.447)" fill="#499d4a" fill-rule="evenodd"></path><path id="Path_111370" data-name="Path 111370" d="M9.991,42.665S-.6,35.436.027,22.707C.624,9.978,8.1,3.723,9.55,2.592A2.926,2.926,0,0,0,10.588.2c.66,1.414.534,21.152.628,23.478.283,8.957-.5,17.287-1.226,18.984Z" transform="translate(0 -0.203)" fill="#fff" fill-rule="evenodd"></path><path id="Path_111371" data-name="Path 111371" d="M9.991,42.665S-.6,35.436.027,22.707C.624,9.978,8.1,3.723,9.55,2.592A2.926,2.926,0,0,0,10.588.2c.66,1.414.534,21.152.628,23.478.283,8.957-.5,17.287-1.226,18.984Z" transform="translate(0 -0.203)" fill="#58aa50" fill-rule="evenodd"></path></g></g></g></g></svg>