<svg xmlns="http://www.w3.org/2000/svg" xmlns:xlink="http://www.w3.org/1999/xlink" width="240" height="120" viewBox="0 0 240 120"><defs><clipPath id="clip-_79"><rect width="240" height="120"></rect></clipPath></defs><g id="_79" data-name="79" clip-path="url(#clip-_79)"><g id="paypal-2" transform="translate(40 40)"><path id="Path_115370" data-name="Path 115370" d="M49.32,6.749H40.466A1.23,1.23,0,0,0,39.25,7.787l-3.581,22.7a.738.738,0,0,0,.73.852h4.227a1.23,1.23,0,0,0,1.216-1.04l.966-6.124a1.23,1.23,0,0,1,1.214-1.04h2.8c5.832,0,9.2-2.822,10.078-8.415.4-2.447.017-4.369-1.129-5.716-1.258-1.478-3.49-2.26-6.454-2.26Zm1.021,8.292c-.484,3.177-2.912,3.177-5.259,3.177H43.746l.937-5.933a.738.738,0,0,1,.729-.623h.612c1.6,0,3.107,0,3.887.911a2.951,2.951,0,0,1,.43,2.468Zm25.445-.1h-4.24a.738.738,0,0,0-.729.623l-.188,1.186-.3-.43c-.918-1.332-2.965-1.778-5.008-1.778a9.75,9.75,0,0,0-9.466,8.527,8,8,0,0,0,1.579,6.513,6.634,6.634,0,0,0,5.34,2.157,8.113,8.113,0,0,0,5.869-2.427l-.189,1.178a.738.738,0,0,0,.728.854h3.819a1.23,1.23,0,0,0,1.216-1.04l2.292-14.512a.735.735,0,0,0-.726-.852Zm-5.91,8.252a4.725,4.725,0,0,1-4.784,4.048,3.284,3.284,0,0,1-3.512-4.122,4.746,4.746,0,0,1,4.751-4.081,3.577,3.577,0,0,1,2.828,1.155A3.67,3.67,0,0,1,69.876,23.191Zm28.491-8.252H94.107a1.235,1.235,0,0,0-1.019.54l-5.876,8.656-2.491-8.318a1.234,1.234,0,0,0-1.181-.878H79.353a.738.738,0,0,0-.7.976l4.693,13.772-4.412,6.229a.738.738,0,0,0,.6,1.165h4.256a1.229,1.229,0,0,0,1.011-.528L98.973,16.1a.738.738,0,0,0-.606-1.159Z" transform="translate(10.507 1.989)" fill="#253b80"></path><path id="Path_115371" data-name="Path 115371" d="M98.1,6.749H89.245a1.23,1.23,0,0,0-1.214,1.038l-3.581,22.7a.737.737,0,0,0,.728.852h4.544a.861.861,0,0,0,.849-.728l1.016-6.436a1.23,1.23,0,0,1,1.214-1.04h2.8c5.834,0,9.2-2.822,10.079-8.415.4-2.447.016-4.369-1.13-5.716-1.257-1.478-3.488-2.26-6.451-2.26Zm1.021,8.292c-.483,3.177-2.91,3.177-5.259,3.177H92.529l.939-5.933a.735.735,0,0,1,.728-.623h.612c1.6,0,3.107,0,3.887.911a2.951,2.951,0,0,1,.429,2.468Zm25.444-.1h-4.237a.734.734,0,0,0-.728.623l-.188,1.186-.3-.43c-.918-1.332-2.963-1.778-5.006-1.778a9.749,9.749,0,0,0-9.465,8.527,8.007,8.007,0,0,0,1.578,6.513,6.638,6.638,0,0,0,5.34,2.157,8.113,8.113,0,0,0,5.869-2.427l-.189,1.178a.738.738,0,0,0,.73.854h3.818A1.23,1.23,0,0,0,123,30.3L125.3,15.791a.739.739,0,0,0-.731-.852Zm-5.91,8.252a4.724,4.724,0,0,1-4.784,4.048,3.284,3.284,0,0,1-3.512-4.122,4.748,4.748,0,0,1,4.751-4.081,3.577,3.577,0,0,1,2.828,1.155A3.652,3.652,0,0,1,118.656,23.191ZM129.565,7.372l-3.634,23.12a.737.737,0,0,0,.728.852h3.654a1.228,1.228,0,0,0,1.216-1.04l3.584-22.7a.738.738,0,0,0-.728-.853h-4.091a.739.739,0,0,0-.728.624Z" transform="translate(24.88 1.988)" fill="#179bd7"></path><path id="Path_115372" data-name="Path 115372" d="M9.094,37.442l.677-4.3-1.508-.035h-7.2L6.066,1.371a.409.409,0,0,1,.407-.347H18.616c4.032,0,6.814.839,8.266,2.495A5.688,5.688,0,0,1,28.207,6a8.96,8.96,0,0,1,.009,3.423l-.016.1V10.4l.681.386a4.777,4.777,0,0,1,1.379,1.051,4.895,4.895,0,0,1,1.119,2.509,10.613,10.613,0,0,1-.159,3.641,12.82,12.82,0,0,1-1.491,4.121A8.476,8.476,0,0,1,27.366,24.7a9.585,9.585,0,0,1-3.182,1.436,15.87,15.87,0,0,1-3.977.46h-.945a2.842,2.842,0,0,0-2.811,2.4l-.071.387-1.2,7.58-.054.278a.239.239,0,0,1-.075.162.2.2,0,0,1-.124.045Z" transform="translate(0.313 0.302)" fill="#253b80"></path><path id="Path_115373" data-name="Path 115373" d="M28.016,7.667q-.054.348-.124.712c-1.6,8.222-7.08,11.063-14.078,11.063H10.25a1.73,1.73,0,0,0-1.71,1.466L6.716,32.476,6.2,35.756a.911.911,0,0,0,.9,1.054h6.319a1.521,1.521,0,0,0,1.5-1.282l.062-.321,1.19-7.55.076-.414a1.52,1.52,0,0,1,1.5-1.284H18.7c6.122,0,10.915-2.486,12.316-9.679.585-3,.282-5.514-1.266-7.278a6.042,6.042,0,0,0-1.73-1.333Z" transform="translate(1.823 2.259)" fill="#179bd7"></path><path id="Path_115374" data-name="Path 115374" d="M25.805,7.282a12.631,12.631,0,0,0-1.557-.346,19.787,19.787,0,0,0-3.141-.229H11.589a1.517,1.517,0,0,0-1.5,1.284L8.063,20.816,8,21.19a1.73,1.73,0,0,1,1.71-1.466h3.563c7,0,12.477-2.842,14.078-11.063.048-.243.088-.48.124-.712a8.537,8.537,0,0,0-1.317-.555q-.178-.059-.359-.113Z" transform="translate(2.359 1.976)" fill="#222d65"></path><path id="Path_115375" data-name="Path 115375" d="M12.447,9.967a1.513,1.513,0,0,1,1.5-1.283h9.518a19.788,19.788,0,0,1,3.141.229,12.631,12.631,0,0,1,1.917.457,8.665,8.665,0,0,1,1.317.555c.476-3.039,0-5.107-1.647-6.981C26.382.883,23.113,0,18.93,0H6.787A1.736,1.736,0,0,0,5.071,1.467L.013,33.529a1.043,1.043,0,0,0,1.029,1.207h7.5l1.882-11.943Z" transform="translate(0 0)" fill="#253b80"></path></g></g></svg>