<svg xmlns="http://www.w3.org/2000/svg" xmlns:xlink="http://www.w3.org/1999/xlink" width="240" height="120" viewBox="0 0 240 120"><defs><clipPath id="clip-_22"><rect width="240" height="120"></rect></clipPath></defs><g id="_22" data-name="22" clip-path="url(#clip-_22)"><g id="Group_20036" data-name="Group 20036" transform="translate(38 3.003)"><text id="React_JS" data-name="React JS" transform="translate(70 62.997)" fill="#53c1de" font-size="24" font-family="Corbel-Bold, Corbel" font-weight="700"><tspan x="0" y="0">React JS</tspan></text><g id="Group_19994" data-name="Group 19994" transform="translate(8.601 33.47)"><path id="Subtraction_5" data-name="Subtraction 5" d="M36.738,46.5h0c-2.569,0-5.8-1.564-9.1-4.4-.484-.417-.959-.851-1.413-1.289-.381.368-.748.706-1.091,1.005-3.392,2.965-6.894,4.666-9.606,4.666a4.927,4.927,0,0,1-2.494-.613,6.21,6.21,0,0,1-2.667-4.376,20.113,20.113,0,0,1,.19-7.518c.118-.621.256-1.248.41-1.866-.482-.138-.957-.286-1.413-.441a20.852,20.852,0,0,1-6.939-3.753C.9,26.407,0,24.78,0,23.2a6.209,6.209,0,0,1,2.458-4.5,20.117,20.117,0,0,1,6.608-3.591c.6-.21,1.251-.415,1.934-.609-.146-.584-.275-1.167-.386-1.731a20.862,20.862,0,0,1-.26-7.664A6.211,6.211,0,0,1,13,.661,4.837,4.837,0,0,1,15.454.051a10.547,10.547,0,0,1,4.621,1.282,24.571,24.571,0,0,1,5.213,3.639c.289.257.58.526.866.8.426-.411.865-.812,1.3-1.194C30.847,1.626,34.15,0,36.756,0a4.713,4.713,0,0,1,2.386.592c1.382.8,2.331,2.421,2.745,4.7a21.923,21.923,0,0,1-.342,8.1c-.08.384-.167.77-.26,1.147.568.163,1.134.342,1.682.53a20.863,20.863,0,0,1,6.762,3.615A6.213,6.213,0,0,1,52.259,23.2c0,1.595-.933,3.228-2.7,4.724A21.927,21.927,0,0,1,42.37,31.68c-.3.1-.627.2-.971.3.121.485.226.956.313,1.4a20.848,20.848,0,0,1,.23,7.885c-.441,2.234-1.4,3.832-2.76,4.621A4.808,4.808,0,0,1,36.738,46.5Zm2.5-13.946a52.182,52.182,0,0,1-7.078,1.091A52.434,52.434,0,0,1,27.78,39.2c.44.423.882.826,1.314,1.2,2.814,2.421,5.666,3.867,7.63,3.867a2.643,2.643,0,0,0,1.337-.313,4.623,4.623,0,0,0,1.711-3.244,18.876,18.876,0,0,0-.251-6.9c-.081-.406-.176-.831-.283-1.264Zm-26.1.1c-.143.574-.272,1.158-.382,1.735-.894,4.71-.332,8.545,1.4,9.544a2.748,2.748,0,0,0,1.381.314,6.991,6.991,0,0,0,2.285-.451,18.871,18.871,0,0,0,5.85-3.662c.349-.306.684-.615,1-.917a54.349,54.349,0,0,1-4.486-5.543A52.6,52.6,0,0,1,13.134,32.65Zm9.938,1.192h0C24.1,35.2,25.158,36.463,26.216,37.6a47.584,47.584,0,0,0,3.068-3.774c-1.06.047-2.121.07-3.155.07s-2.048-.02-3.058-.059Zm-4.234-14.8c-.789,1.368-1.537,2.786-2.223,4.212.685,1.423,1.435,2.84,2.229,4.211S20.5,30.208,21.4,31.519c1.531.1,3.123.149,4.731.149s3.228-.057,4.786-.168c.873-1.312,1.717-2.673,2.507-4.045s1.547-2.794,2.246-4.23c-.7-1.419-1.462-2.83-2.253-4.193s-1.64-2.722-2.519-4.02c-1.568-.119-3.172-.18-4.767-.18s-3.191.06-4.759.178c-.89,1.3-1.743,2.662-2.534,4.035ZM15.43,25.882c-.663,1.573-1.233,3.125-1.694,4.613a47.578,47.578,0,0,0,4.817.774c-.567-.879-1.119-1.782-1.641-2.684s-1.013-1.8-1.481-2.7h0Zm21.441-.08h0c-.483.929-.993,1.861-1.516,2.769s-1.057,1.791-1.6,2.659a47.363,47.363,0,0,0,4.875-.831,47.26,47.26,0,0,0-1.754-4.6ZM11.6,16.658c-.6.171-1.209.361-1.8.566C5.274,18.8,2.232,21.206,2.232,23.2A4.627,4.627,0,0,0,4.183,26.31a18.88,18.88,0,0,0,6.095,3.238c.423.144.857.279,1.29.4a54.37,54.37,0,0,1,2.579-6.694,53.5,53.5,0,0,1-2.547-6.6Zm29.087.033h0a52.285,52.285,0,0,1-2.544,6.524,52.334,52.334,0,0,1,2.647,6.62c.318-.095.605-.185.878-.275,4.921-1.631,8.358-4.245,8.358-6.357,0-.938-.738-2.039-2.079-3.1a19.69,19.69,0,0,0-5.707-2.924c-.489-.168-1.012-.333-1.553-.49ZM33.758,15.3c.55.862,1.084,1.741,1.589,2.613.519.9,1.025,1.812,1.5,2.72a47.78,47.78,0,0,0,1.672-4.5C37.021,15.791,35.418,15.51,33.758,15.3Zm-15.253,0c-1.655.206-3.249.48-4.738.813.453,1.462,1.012,2.984,1.661,4.522.469-.912.966-1.821,1.474-2.7S17.958,16.15,18.505,15.3ZM36.743,2.227c-2,0-4.92,1.508-7.822,4.034-.4.351-.807.722-1.2,1.1a52.281,52.281,0,0,1,4.418,5.514,53.308,53.308,0,0,1,6.987,1.1c.082-.334.161-.684.235-1.039,1.046-5.078.5-9.361-1.331-10.416A2.549,2.549,0,0,0,36.743,2.227Zm-21.273.05a2.677,2.677,0,0,0-1.353.315c-.812.47-1.394,1.66-1.639,3.352a19.694,19.694,0,0,0,.328,6.4c.105.537.226,1.079.359,1.61a54.508,54.508,0,0,1,6.973-1.083,53.483,53.483,0,0,1,4.451-5.509c-.259-.248-.523-.493-.784-.724C20.727,3.908,17.611,2.277,15.469,2.277ZM26.135,12.6c1.028,0,2.069.025,3.095.073A47.826,47.826,0,0,0,26.154,8.96c-1.043,1.126-2.087,2.374-3.1,3.712C24.086,12.624,25.123,12.6,26.135,12.6Z" transform="translate(0 0)" fill="#53c1de"></path><path id="Path_111218" data-name="Path 111218" d="M112.71,94.665a4.667,4.667,0,1,1-4.667,4.667,4.666,4.666,0,0,1,4.667-4.667" transform="translate(-86.581 -76.128)" fill="#53c1de"></path></g></g></g></svg>