<svg xmlns="http://www.w3.org/2000/svg" xmlns:xlink="http://www.w3.org/1999/xlink" width="240" height="120" viewBox="0 0 240 120"><defs><clipPath id="clip-_85"><rect width="240" height="120"></rect></clipPath></defs><g id="_85" data-name="85" clip-path="url(#clip-_85)"><g id="salesforca-seeklogo.com" transform="translate(59.872 17.875)" opacity="0.96"><path id="Path_115402" data-name="Path 115402" d="M50.065-169.974a21.027,21.027,0,0,1,15.217-6.533,21.246,21.246,0,0,1,18.513,10.974,25.581,25.581,0,0,1,10.463-2.224,25.984,25.984,0,0,1,25.87,26.1,25.985,25.985,0,0,1-25.87,26.1,25.683,25.683,0,0,1-5.1-.508,18.906,18.906,0,0,1-16.506,9.687,18.822,18.822,0,0,1-8.274-1.9A21.58,21.58,0,0,1,44.521-95.141a21.586,21.586,0,0,1-20.248-14.123,19.793,19.793,0,0,1-4.116.429A20.134,20.134,0,0,1,.128-129.073,20.269,20.269,0,0,1,10.143-146.6a23.167,23.167,0,0,1-1.918-9.256,23.292,23.292,0,0,1,23.308-23.275,23.278,23.278,0,0,1,18.532,9.161" transform="translate(0 179.262)" fill="#00a1e0"></path><path id="Path_115403" data-name="Path 115403" d="M37.139-86.411c-.075.2.027.238.051.272a7.019,7.019,0,0,0,.685.414,7.306,7.306,0,0,0,3.588.839c2.462,0,3.99-1.309,3.99-3.417v-.041c0-1.949-1.725-2.656-3.344-3.168l-.21-.068c-1.221-.4-2.274-.738-2.274-1.542v-.043c0-.687.615-1.193,1.569-1.193a7.1,7.1,0,0,1,3.128.8s.238.154.325-.077c.048-.123.458-1.227.5-1.347a.229.229,0,0,0-.12-.277,6.98,6.98,0,0,0-3.526-.947l-.246,0c-2.253,0-3.826,1.361-3.826,3.311v.041c0,2.056,1.735,2.723,3.361,3.188l.262.08c1.185.364,2.205.677,2.205,1.511v.041c0,.762-.663,1.33-1.733,1.33a5.821,5.821,0,0,1-3.171-.913c-.173-.1-.274-.174-.407-.255a.2.2,0,0,0-.323.111l-.485,1.347Z" transform="translate(-19.631 130.096)" fill="#fff"></path><path id="Path_115404" data-name="Path 115404" d="M113.939-86.411c-.075.2.027.238.051.272a7.02,7.02,0,0,0,.685.414,7.306,7.306,0,0,0,3.588.839c2.462,0,3.99-1.309,3.99-3.417v-.041c0-1.949-1.725-2.656-3.344-3.168l-.21-.068c-1.221-.4-2.274-.738-2.274-1.542v-.043c0-.687.615-1.193,1.569-1.193a7.1,7.1,0,0,1,3.128.8s.238.154.325-.077c.048-.123.458-1.227.5-1.347a.229.229,0,0,0-.12-.277,6.98,6.98,0,0,0-3.526-.947l-.246,0c-2.253,0-3.826,1.361-3.826,3.311v.041c0,2.056,1.735,2.723,3.361,3.188l.262.08c1.185.364,2.207.677,2.207,1.511v.041c0,.762-.665,1.33-1.735,1.33a5.821,5.821,0,0,1-3.171-.913c-.173-.1-.275-.171-.405-.255a.21.21,0,0,0-.325.111l-.485,1.347Z" transform="translate(-60.394 130.096)" fill="#fff"></path><path id="Path_115405" data-name="Path 115405" d="M157.713-90.487a5.063,5.063,0,0,1-.66,2.793,2.208,2.208,0,0,1-2,.976,2.181,2.181,0,0,1-1.991-.976,5.123,5.123,0,0,1-.65-2.793,5.077,5.077,0,0,1,.65-2.783,2.191,2.191,0,0,1,1.991-.966,2.22,2.22,0,0,1,2,.966,5.029,5.029,0,0,1,.658,2.783m2.055-2.209a4.945,4.945,0,0,0-.935-1.785,4.52,4.52,0,0,0-1.578-1.2,5.191,5.191,0,0,0-2.2-.441,5.193,5.193,0,0,0-2.2.441,4.542,4.542,0,0,0-1.579,1.2,5.027,5.027,0,0,0-.935,1.785,7.811,7.811,0,0,0-.3,2.209,7.8,7.8,0,0,0,.3,2.209,4.976,4.976,0,0,0,.937,1.785,4.41,4.41,0,0,0,1.578,1.19,5.306,5.306,0,0,0,2.2.431,5.3,5.3,0,0,0,2.2-.431,4.41,4.41,0,0,0,1.578-1.19,4.945,4.945,0,0,0,.935-1.785,7.759,7.759,0,0,0,.3-2.209,7.758,7.758,0,0,0-.3-2.209" transform="translate(-79.567 130.043)" fill="#fff"></path><path id="Path_115406" data-name="Path 115406" d="M197.786-87.014a.2.2,0,0,0-.262-.125,4.718,4.718,0,0,1-.956.274,7.429,7.429,0,0,1-1.126.08,3.13,3.13,0,0,1-2.35-.88,3.923,3.923,0,0,1-.882-2.809A4.354,4.354,0,0,1,193-93.18a2.683,2.683,0,0,1,2.28-1,6.829,6.829,0,0,1,2.171.311s.162.07.239-.142c.179-.5.313-.856.5-1.405a.184.184,0,0,0-.126-.241,8.011,8.011,0,0,0-1.371-.345,10.284,10.284,0,0,0-1.542-.1,5.588,5.588,0,0,0-2.291.441,4.745,4.745,0,0,0-1.655,1.2,5.1,5.1,0,0,0-1,1.785,7.106,7.106,0,0,0-.335,2.212,5.914,5.914,0,0,0,1.368,4.091,5.2,5.2,0,0,0,4.056,1.526,8.361,8.361,0,0,0,2.909-.52.187.187,0,0,0,.084-.244l-.5-1.393Z" transform="translate(-100.713 130.022)" fill="#fff"></path><path id="Path_115407" data-name="Path 115407" d="M211.65-91.634a4.04,4.04,0,0,1,.562-1.641,2.214,2.214,0,0,1,1.988-1.009,2.158,2.158,0,0,1,1.949,1.009,3.438,3.438,0,0,1,.462,1.641Zm6.918-1.455a4.319,4.319,0,0,0-.891-1.627,4.087,4.087,0,0,0-1.32-1.007,5.087,5.087,0,0,0-1.993-.4,5.426,5.426,0,0,0-2.3.446,4.567,4.567,0,0,0-1.6,1.222,5.011,5.011,0,0,0-.942,1.805,7.807,7.807,0,0,0-.306,2.221,7.439,7.439,0,0,0,.316,2.221,4.591,4.591,0,0,0,1.009,1.768,4.571,4.571,0,0,0,1.749,1.159,7,7,0,0,0,2.525.409,7.267,7.267,0,0,0,3.5-.7c.077-.043.15-.118.058-.333l-.455-1.274a.2.2,0,0,0-.262-.12,6.714,6.714,0,0,1-2.855.513,3.3,3.3,0,0,1-2.38-.817,3.291,3.291,0,0,1-.81-2.315l6.956.007a.206.206,0,0,0,.2-.181,7.46,7.46,0,0,0-.207-3Z" transform="translate(-110.981 130.049)" fill="#fff"></path><path id="Path_115408" data-name="Path 115408" d="M92.933-91.634a4.066,4.066,0,0,1,.562-1.641,2.214,2.214,0,0,1,1.988-1.009,2.163,2.163,0,0,1,1.95,1.009,3.457,3.457,0,0,1,.46,1.641Zm6.916-1.455a4.319,4.319,0,0,0-.889-1.627,4.087,4.087,0,0,0-1.32-1.007,5.087,5.087,0,0,0-1.993-.4,5.431,5.431,0,0,0-2.3.446,4.567,4.567,0,0,0-1.6,1.222,5.011,5.011,0,0,0-.942,1.805,7.867,7.867,0,0,0-.306,2.221,7.439,7.439,0,0,0,.316,2.221,4.59,4.59,0,0,0,1.009,1.768,4.571,4.571,0,0,0,1.749,1.159,7,7,0,0,0,2.525.409,7.267,7.267,0,0,0,3.5-.7c.077-.043.15-.118.058-.333l-.453-1.274a.2.2,0,0,0-.263-.12,6.71,6.71,0,0,1-2.856.513,3.3,3.3,0,0,1-2.378-.817,3.291,3.291,0,0,1-.81-2.315l6.956.007a.206.206,0,0,0,.2-.181,7.443,7.443,0,0,0-.209-3Z" transform="translate(-47.969 130.049)" fill="#fff"></path><path id="Path_115409" data-name="Path 115409" d="M60.4-87.065a1.41,1.41,0,0,1-.4-.412,1.682,1.682,0,0,1-.207-.9,1.522,1.522,0,0,1,.621-1.347,3.116,3.116,0,0,1,2.017-.5,14.266,14.266,0,0,1,1.887.161v3.162h0a14.13,14.13,0,0,1-1.879.25,3.127,3.127,0,0,1-2.039-.407m2.768-4.887c-.282-.021-.648-.032-1.085-.032a6.6,6.6,0,0,0-1.713.221,4.467,4.467,0,0,0-1.453.674,3.354,3.354,0,0,0-1.009,1.147,3.354,3.354,0,0,0-.371,1.6,3.634,3.634,0,0,0,.318,1.588,2.863,2.863,0,0,0,.908,1.087,3.8,3.8,0,0,0,1.417.614,8.308,8.308,0,0,0,1.841.188,12.557,12.557,0,0,0,2.113-.176c.682-.116,1.52-.285,1.752-.338s.487-.125.487-.125a.218.218,0,0,0,.159-.227l0-6.361a3.893,3.893,0,0,0-1.106-3.07,4.731,4.731,0,0,0-3.195-.962,11.445,11.445,0,0,0-1.863.173,6.717,6.717,0,0,0-2.145.783.217.217,0,0,0-.062.277l.492,1.323a.176.176,0,0,0,.227.113.9.9,0,0,0,.115-.056,7.059,7.059,0,0,1,3.031-.706,2.8,2.8,0,0,1,1.72.45c.379.291.573.73.573,1.656v.294c-.6-.085-1.147-.135-1.147-.135" transform="translate(-30.473 130.035)" fill="#fff"></path><path id="Path_115410" data-name="Path 115410" d="M181.834-95.18a.187.187,0,0,0-.1-.25,6.034,6.034,0,0,0-1.166-.2,3.465,3.465,0,0,0-1.793.289,3.161,3.161,0,0,0-1.176.867v-.846a.2.2,0,0,0-.2-.212h-1.783a.2.2,0,0,0-.2.212v10.374a.213.213,0,0,0,.212.212h1.827a.212.212,0,0,0,.21-.212v-5.183a6.072,6.072,0,0,1,.231-1.826,2.627,2.627,0,0,1,.609-1.024,2.135,2.135,0,0,1,.86-.516,3.353,3.353,0,0,1,.933-.132,3.9,3.9,0,0,1,.764.094c.133.015.209-.067.253-.188.12-.318.458-1.27.523-1.46" transform="translate(-93.037 129.678)" fill="#fff"></path><path id="Path_115411" data-name="Path 115411" d="M138.967-106.028a5.976,5.976,0,0,0-.687-.164,5.445,5.445,0,0,0-.945-.072,3.983,3.983,0,0,0-2.945,1.056,5.747,5.747,0,0,0-1.4,3.156l-.085.47h-1.579a.234.234,0,0,0-.232.2l-.258,1.448c-.019.137.041.224.226.224H132.6L131.039-91a10.773,10.773,0,0,1-.417,1.715,3.5,3.5,0,0,1-.485.99,1.293,1.293,0,0,1-.636.491,2.588,2.588,0,0,1-.819.118,3.073,3.073,0,0,1-.557-.062,1.648,1.648,0,0,1-.376-.121.192.192,0,0,0-.251.111c-.056.149-.467,1.275-.516,1.414a.21.21,0,0,0,.108.279,5.689,5.689,0,0,0,.636.186,4.219,4.219,0,0,0,1.019.1,5.1,5.1,0,0,0,1.708-.265,3.224,3.224,0,0,0,1.285-.9,4.588,4.588,0,0,0,.9-1.557,13.217,13.217,0,0,0,.612-2.335l1.568-8.867h2.291a.234.234,0,0,0,.232-.2l.26-1.446c.017-.138-.041-.224-.227-.224H135.15a9.655,9.655,0,0,1,.368-1.569,2.052,2.052,0,0,1,.487-.742,1.459,1.459,0,0,1,.583-.362,2.419,2.419,0,0,1,.747-.106,2.918,2.918,0,0,1,.571.056c.215.046.3.07.356.087.227.068.258,0,.3-.108l.532-1.46a.186.186,0,0,0-.128-.243" transform="translate(-67.323 135.718)" fill="#fff"></path><path id="Path_115412" data-name="Path 115412" d="M83.785-80.583a.2.2,0,0,1-.2.21H81.74a.2.2,0,0,1-.2-.21V-95.428a.2.2,0,0,1,.2-.21h1.844a.2.2,0,0,1,.2.21v14.844Z" transform="translate(-43.213 125.316)" fill="#fff"></path></g></g></svg>